<?xml version="1.0" encoding="utf-8"?>
<!-- Generator: Adobe Illustrator 15.0.2, SVG Export Plug-In . SVG Version: 6.00 Build 0)  -->
<!DOCTYPE svg PUBLIC "-//W3C//DTD SVG 1.1//EN" "http://www.w3.org/Graphics/SVG/1.1/DTD/svg11.dtd">
<svg version="1.1" id="Calque_1" xmlns="http://www.w3.org/2000/svg" xmlns:xlink="http://www.w3.org/1999/xlink" x="0px" y="0px"
	 width="34px" height="34px" viewBox="0 0 34 34" enable-background="new 0 0 34 34" xml:space="preserve">
<linearGradient id="SVGID_1_" gradientUnits="userSpaceOnUse" x1="209.5996" y1="-274.7939" x2="209.5996" y2="-308.9038" gradientTransform="matrix(1 0 0 -1 -192.5996 -274.96)">
	<stop  offset="0" style="stop-color:#D31147"/>
	<stop  offset="1" style="stop-color:#F01B57"/>
</linearGradient>
<rect fill="url(#SVGID_1_)" width="34" height="34"/>
<path fill="#2E2E2D" d="M16.991,9c-4.51,0-4.292,5.567-4.292,5.567s-0.625-0.081-0.625,0.843c0,0.923,0.652,0.923,0.652,0.923
	c0,0.952,1.82,2.526,1.82,2.526V19.4C10.662,19.402,9.602,25,9.602,25h14.796c0,0-1.062-5.598-4.941-5.598v-0.541
	c0,0,1.816-1.576,1.816-2.527c0,0,0.656,0,0.656-0.924c0-0.922-0.625-0.843-0.625-0.843S21.521,9,17.012,9H16.991z"/>
</svg>
