<?xml version="1.0" encoding="utf-8"?>
<!-- Generator: Adobe Illustrator 15.0.2, SVG Export Plug-In . SVG Version: 6.00 Build 0)  -->
<!DOCTYPE svg PUBLIC "-//W3C//DTD SVG 1.1//EN" "http://www.w3.org/Graphics/SVG/1.1/DTD/svg11.dtd">
<svg version="1.1" id="Calque_1" xmlns="http://www.w3.org/2000/svg" xmlns:xlink="http://www.w3.org/1999/xlink" x="0px" y="0px"
	 width="34px" height="34px" viewBox="0 0 34 34" enable-background="new 0 0 34 34" xml:space="preserve">
<linearGradient id="SVGID_1_" gradientUnits="userSpaceOnUse" x1="209.5996" y1="-274.7939" x2="209.5996" y2="-308.9038" gradientTransform="matrix(1 0 0 -1 -192.5996 -274.96)">
	<stop  offset="0" style="stop-color:#D31147"/>
	<stop  offset="1" style="stop-color:#F01B57"/>
</linearGradient>
<rect fill="url(#SVGID_1_)" width="34" height="34"/>
<g>
	<path fill="#2E2E2D" d="M10.125,11.398l6.307,6.308c0.15,0.149,0.353,0.233,0.568,0.233c0.217,0,0.418-0.084,0.57-0.233
		l6.306-6.308H10.125z"/>
	<g>
		<path fill="#2E2E2D" d="M19.414,17.014l-1.256,1.255c-0.311,0.313-0.721,0.465-1.131,0.465c-0.41,0-0.818-0.152-1.132-0.465
			l-1.28-1.28l-5.28,5.278c-0.034,0.037-0.068,0.063-0.104,0.094c0.146,0.146,0.35,0.24,0.572,0.24h14.394
			c0.227,0,0.43-0.095,0.574-0.24c-0.037-0.028-0.07-0.057-0.104-0.094L19.414,17.014z"/>
	</g>
	<g>
		<path fill="#2E2E2D" d="M9.361,11.734c-0.042-0.041-0.068-0.082-0.102-0.12C9.1,11.762,9,11.97,9,12.202v9.274l5.052-5.054
			L9.361,11.734z"/>
		<path fill="#2E2E2D" d="M24.691,11.734l-4.719,4.716L25,21.477v-9.272c0-0.218-0.087-0.417-0.23-0.561
			C24.742,11.671,24.725,11.701,24.691,11.734z"/>
	</g>
</g>
</svg>
