<?xml version="1.0" encoding="utf-8"?>
<!-- Generator: Adobe Illustrator 15.0.2, SVG Export Plug-In . SVG Version: 6.00 Build 0)  -->
<!DOCTYPE svg PUBLIC "-//W3C//DTD SVG 1.1//EN" "http://www.w3.org/Graphics/SVG/1.1/DTD/svg11.dtd">
<svg version="1.1" id="Calque_1" xmlns="http://www.w3.org/2000/svg" xmlns:xlink="http://www.w3.org/1999/xlink" x="0px" y="0px"
	 width="170px" height="34px" viewBox="-34 0 170 34" enable-background="new -34 0 170 34" xml:space="preserve">
<linearGradient id="SVGID_1_" gradientUnits="userSpaceOnUse" x1="749.1592" y1="2023.6465" x2="749.1592" y2="1989.5366" gradientTransform="matrix(1 0 0 -1 -732.1602 2023.4805)">
	<stop  offset="0" style="stop-color:#D31147"/>
	<stop  offset="1" style="stop-color:#F01B57"/>
</linearGradient>
<rect fill="url(#SVGID_1_)" width="34" height="34"/>
<g>
	<path fill="#2E2E2D" d="M10.125,11.398l6.307,6.308c0.15,0.149,0.353,0.233,0.568,0.233c0.217,0,0.418-0.084,0.57-0.233
		l6.306-6.308H10.125z"/>
	<g>
		<path fill="#2E2E2D" d="M19.414,17.014l-1.256,1.256c-0.311,0.313-0.721,0.465-1.131,0.465c-0.41,0-0.818-0.152-1.132-0.465
			l-1.28-1.281l-5.28,5.279c-0.034,0.036-0.068,0.063-0.104,0.094c0.146,0.146,0.35,0.24,0.572,0.24h14.394
			c0.227,0,0.43-0.097,0.574-0.24c-0.037-0.028-0.07-0.058-0.104-0.094L19.414,17.014z"/>
	</g>
	<g>
		<path fill="#2E2E2D" d="M9.361,11.734c-0.042-0.041-0.068-0.082-0.102-0.12C9.1,11.762,9,11.97,9,12.202v9.274l5.052-5.056
			L9.361,11.734z"/>
		<path fill="#2E2E2D" d="M24.691,11.734l-4.719,4.716L25,21.477v-9.271c0-0.218-0.087-0.417-0.23-0.561
			C24.742,11.671,24.725,11.701,24.691,11.734z"/>
	</g>
</g>
<linearGradient id="SVGID_2_" gradientUnits="userSpaceOnUse" x1="715.1592" y1="2023.6465" x2="715.1592" y2="1989.5366" gradientTransform="matrix(1 0 0 -1 -732.1602 2023.4805)">
	<stop  offset="0" style="stop-color:#D31147"/>
	<stop  offset="1" style="stop-color:#F01B57"/>
</linearGradient>
<rect x="-34" fill="url(#SVGID_2_)" width="34" height="34"/>
<g>
	<path fill="#2E2E2D" d="M-23.875,11.398l6.307,6.308c0.15,0.149,0.353,0.233,0.568,0.233c0.217,0,0.418-0.084,0.57-0.233
		l6.306-6.308H-23.875z"/>
	<g>
		<path fill="#2E2E2D" d="M-14.586,17.014l-1.256,1.256c-0.311,0.313-0.721,0.465-1.131,0.465c-0.41,0-0.818-0.152-1.132-0.465
			l-1.28-1.281l-5.28,5.279c-0.034,0.036-0.068,0.063-0.104,0.094c0.146,0.146,0.35,0.24,0.572,0.24h14.394
			c0.227,0,0.43-0.097,0.574-0.24c-0.037-0.028-0.07-0.058-0.104-0.094L-14.586,17.014z"/>
	</g>
	<g>
		<path fill="#2E2E2D" d="M-24.639,11.734c-0.042-0.041-0.068-0.082-0.102-0.12C-24.9,11.762-25,11.97-25,12.202v9.274l5.052-5.056
			L-24.639,11.734z"/>
		<path fill="#2E2E2D" d="M-9.309,11.734l-4.719,4.716L-9,21.477v-9.271c0-0.218-0.087-0.417-0.23-0.561
			C-9.258,11.671-9.275,11.701-9.309,11.734z"/>
	</g>
</g>
<linearGradient id="SVGID_3_" gradientUnits="userSpaceOnUse" x1="851.1592" y1="2023.6465" x2="851.1592" y2="1989.5366" gradientTransform="matrix(1 0 0 -1 -732.1602 2023.4805)">
	<stop  offset="0" style="stop-color:#F01B57"/>
	<stop  offset="1" style="stop-color:#D31147"/>
</linearGradient>
<rect x="102" fill="url(#SVGID_3_)" width="34" height="34"/>
<g>
	<path fill="#0000FF" d="M112.125,11.398l6.307,6.308c0.15,0.149,0.354,0.233,0.568,0.233c0.217,0,0.418-0.084,0.57-0.233
		l6.306-6.308H112.125z"/>
	<g>
		<path fill="#0000FF" d="M121.414,17.014l-1.256,1.256c-0.311,0.313-0.721,0.465-1.131,0.465s-0.818-0.152-1.133-0.465
			l-1.279-1.281l-5.28,5.279c-0.034,0.036-0.067,0.063-0.104,0.094c0.146,0.146,0.352,0.24,0.572,0.24h14.396
			c0.227,0,0.43-0.097,0.573-0.24c-0.037-0.028-0.069-0.058-0.104-0.094L121.414,17.014z"/>
	</g>
	<g>
		<path fill="#0000FF" d="M111.361,11.734c-0.043-0.041-0.068-0.082-0.104-0.12C111.1,11.762,111,11.97,111,12.202v9.274
			l5.053-5.056L111.361,11.734z"/>
		<path fill="#0000FF" d="M126.691,11.734l-4.719,4.716L127,21.477v-9.271c0-0.218-0.087-0.417-0.23-0.561
			C126.742,11.671,126.725,11.701,126.691,11.734z"/>
	</g>
</g>
<linearGradient id="SVGID_4_" gradientUnits="userSpaceOnUse" x1="783.1592" y1="2023.6465" x2="783.1592" y2="1989.5366" gradientTransform="matrix(1 0 0 -1 -732.1602 2023.4805)">
	<stop  offset="0" style="stop-color:#F01B57"/>
	<stop  offset="1" style="stop-color:#D31147"/>
</linearGradient>
<rect x="34" fill="url(#SVGID_4_)" width="34" height="34"/>
<g>
	<path fill="#0000FF" d="M44.125,11.398l6.306,6.309c0.151,0.148,0.353,0.232,0.569,0.232c0.217,0,0.418-0.084,0.57-0.232
		l6.306-6.309H44.125z"/>
	<g>
		<path fill="#0000FF" d="M53.414,17.012l-1.256,1.258c-0.311,0.311-0.721,0.467-1.131,0.467c-0.411,0-0.82-0.156-1.131-0.467
			l-1.28-1.286l-5.282,5.284c-0.034,0.036-0.069,0.063-0.104,0.094c0.146,0.146,0.349,0.24,0.573,0.24h14.394
			c0.225,0,0.428-0.098,0.574-0.24c-0.037-0.029-0.07-0.062-0.105-0.094L53.414,17.012z"/>
	</g>
	<g>
		<path fill="#0000FF" d="M43.361,11.734c-0.042-0.041-0.069-0.082-0.102-0.12C43.099,11.762,43,11.97,43,12.202v9.274l5.051-5.057
			L43.361,11.734z"/>
		<path fill="#0000FF" d="M58.691,11.734l-4.719,4.716L59,21.477v-9.271c0-0.218-0.086-0.417-0.23-0.562
			C58.742,11.672,58.725,11.701,58.691,11.734z"/>
	</g>
</g>
<linearGradient id="SVGID_5_" gradientUnits="userSpaceOnUse" x1="817.1592" y1="2023.6465" x2="817.1592" y2="1989.5366" gradientTransform="matrix(1 0 0 -1 -732.1602 2023.4805)">
	<stop  offset="0" style="stop-color:#F01B57"/>
	<stop  offset="1" style="stop-color:#D31147"/>
</linearGradient>
<rect x="68" fill="url(#SVGID_5_)" width="34" height="34"/>
<g>
	<path fill="#0000FF" d="M78.125,11.398l6.307,6.309c0.15,0.148,0.354,0.232,0.568,0.232c0.217,0,0.418-0.084,0.57-0.232
		l6.306-6.309H78.125z"/>
	<g>
		<path fill="#0000FF" d="M87.414,17.012l-1.256,1.258c-0.311,0.311-0.721,0.467-1.131,0.467c-0.411,0-0.82-0.156-1.131-0.467
			l-1.28-1.286l-5.282,5.284c-0.034,0.036-0.068,0.063-0.104,0.094c0.146,0.146,0.349,0.24,0.572,0.24h14.395
			c0.225,0,0.428-0.098,0.574-0.24c-0.037-0.029-0.07-0.062-0.105-0.094L87.414,17.012z"/>
	</g>
	<g>
		<path fill="#0000FF" d="M77.361,11.734c-0.043-0.041-0.069-0.082-0.104-0.12C77.1,11.762,77,11.97,77,12.202v9.274l5.051-5.057
			L77.361,11.734z"/>
		<path fill="#0000FF" d="M92.691,11.734l-4.719,4.716L93,21.477v-9.271c0-0.218-0.086-0.417-0.23-0.562
			C92.742,11.672,92.725,11.701,92.691,11.734z"/>
	</g>
</g>
</svg>
