<?xml version="1.0" encoding="utf-8"?>
<!-- Generator: Adobe Illustrator 15.0.2, SVG Export Plug-In . SVG Version: 6.00 Build 0)  -->
<!DOCTYPE svg PUBLIC "-//W3C//DTD SVG 1.1//EN" "http://www.w3.org/Graphics/SVG/1.1/DTD/svg11.dtd">
<svg xmlns="http://www.w3.org/2000/svg" xmlns:xlink="http://www.w3.org/1999/xlink" version="1.1" id="Calque_1" x="0px" y="0px" width="20px" height="24px" viewBox="0 0 20 24" enable-background="new 0 0 20 24" xml:space="preserve">
<g>
	<g>
		<path fill="#2aedff" d="M20,20c0,2.2-1.8,4-4,4H4c-2.2,0-4-1.8-4-4V4c0-2.2,1.8-4,4-4h12c2.2,0,4,1.8,4,4V20z"/>
	</g>
</g>
<linearGradient id="SVGID_1_" gradientUnits="userSpaceOnUse" x1="388.96" y1="-255.0996" x2="388.96" y2="-278.0996" gradientTransform="matrix(1 0 0 -1 -378.96 -254.5996)">
	<stop offset="0" style="stop-color:#EEEBE8"/>
	<stop offset="1" style="stop-color:#E8C6B0"/>
</linearGradient>
<path fill="url(#SVGID_1_)" d="M19.5,19.5c0,2.2-1.8,4-4,4h-11c-2.2,0-4-1.8-4-4v-15c0-2.2,1.8-4,4-4h11c2.2,0,4,1.8,4,4V19.5z"/>
<g opacity="0.45">
	<path fill="#FFFFFE" d="M15.5,0.5h-11c-2.2,0-4,1.8-4,4v1c0-2.2,1.8-4,4-4h11c2.2,0,4,1.8,4,4v-1C19.5,2.3,17.7,0.5,15.5,0.5z"/>
</g>
<g opacity="0.1">
	<path fill="#FFFFFE" d="M4.5,23.5h11c2.2,0,4-1.8,4-4v-1c0,2.2-1.8,4-4,4h-11c-2.2,0-4-1.8-4-4v1C0.5,21.7,2.3,23.5,4.5,23.5z"/>
</g>
<g>
	
		<linearGradient id="SVGID_2_" gradientUnits="userSpaceOnUse" x1="388.96" y1="-255.7256" x2="388.96" y2="-277.3641" gradientTransform="matrix(1 0 0 -1 -378.96 -254.5996)">
		<stop offset="0" style="stop-color:#FFFFFE;stop-opacity:0"/>
		<stop offset="1" style="stop-color:#000000;stop-opacity:0.2"/>
	</linearGradient>
	<path fill="url(#SVGID_2_)" d="M15.5,1.5h-11c-2.2,0-4,1.8-4,4v13c0,2.2,1.8,4,4,4h11c2.2,0,4-1.8,4-4v-13   C19.5,3.3,17.7,1.5,15.5,1.5z"/>
</g>
</svg>
