<?xml version="1.0" encoding="utf-8"?>
<!-- Generator: Adobe Illustrator 15.0.2, SVG Export Plug-In . SVG Version: 6.00 Build 0)  -->
<!DOCTYPE svg PUBLIC "-//W3C//DTD SVG 1.1//EN" "http://www.w3.org/Graphics/SVG/1.1/DTD/svg11.dtd">
<svg version="1.1" id="Calque_1" xmlns="http://www.w3.org/2000/svg" xmlns:xlink="http://www.w3.org/1999/xlink" x="0px" y="0px"
	 width="170px" height="34px" viewBox="-34 0 170 34" enable-background="new -34 0 170 34" xml:space="preserve">
<linearGradient id="SVGID_1_" gradientUnits="userSpaceOnUse" x1="749.1592" y1="2023.6465" x2="749.1592" y2="1989.5366" gradientTransform="matrix(1 0 0 -1 -732.1602 2023.4805)">
	<stop  offset="0" style="stop-color:#D31147"/>
	<stop  offset="1" style="stop-color:#F01B57"/>
</linearGradient>
<rect fill="url(#SVGID_1_)" width="34" height="34"/>
<g>
	<path fill="#2E2E2D" d="M26.125,16.988L17.51,9.133c-0.13-0.118-0.314-0.146-0.508-0.125c-0.195-0.021-0.38,0.006-0.512,0.125
		l-8.614,7.855c-0.31,0.283-0.227,0.88,0.188,1.332c0.416,0.455,1.002,0.599,1.313,0.313L17,11.683l7.626,6.951
		c0.31,0.283,0.897,0.146,1.312-0.309C26.352,17.868,26.434,17.271,26.125,16.988z"/>
	<path fill="#2E2E2D" d="M17.306,12.843c-0.149-0.133-0.398-0.135-0.55-0.001l-5.739,4.992c-0.151,0.128-0.276,0.402-0.276,0.604
		v6.196c0,0.203,0.164,0.367,0.365,0.367h3.683c0.202,0,0.366-0.165,0.366-0.367V19.86c0-0.202,0.164-0.364,0.365-0.364h2.955
		c0.205,0,0.366,0.162,0.366,0.364v4.773c0,0.203,0.166,0.367,0.367,0.367h3.646c0.203,0,0.365-0.165,0.365-0.367v-6.196
		c0-0.202-0.119-0.475-0.273-0.604L17.306,12.843z"/>
	<path fill="#2E2E2D" d="M22.943,13.378c0.146,0.134,0.269,0.08,0.269-0.119v-2.881c0-0.201-0.164-0.365-0.362-0.365h-2.151
		c-0.202,0-0.365,0.164-0.365,0.365v0.255c0,0.2,0.119,0.476,0.271,0.61L22.943,13.378z"/>
</g>
<linearGradient id="SVGID_2_" gradientUnits="userSpaceOnUse" x1="715.1592" y1="2023.6465" x2="715.1592" y2="1989.5366" gradientTransform="matrix(1 0 0 -1 -732.1602 2023.4805)">
	<stop  offset="0" style="stop-color:#D31147"/>
	<stop  offset="1" style="stop-color:#F01B57"/>
</linearGradient>
<rect x="-34" fill="url(#SVGID_2_)" width="34" height="34"/>
<g>
	<path fill="#2E2E2D" d="M-7.875,16.988l-8.615-7.855c-0.13-0.118-0.314-0.146-0.508-0.125c-0.195-0.021-0.38,0.006-0.512,0.125
		l-8.614,7.855c-0.31,0.283-0.227,0.88,0.188,1.332c0.416,0.455,1.002,0.599,1.313,0.313l7.623-6.95l7.626,6.951
		c0.31,0.283,0.897,0.146,1.312-0.309C-7.648,17.868-7.566,17.271-7.875,16.988z"/>
	<path fill="#2E2E2D" d="M-16.694,12.843c-0.149-0.133-0.398-0.135-0.55-0.001l-5.739,4.992c-0.151,0.128-0.276,0.402-0.276,0.604
		v6.196c0,0.203,0.164,0.367,0.365,0.367h3.683c0.202,0,0.366-0.165,0.366-0.367V19.86c0-0.202,0.164-0.364,0.365-0.364h2.955
		c0.205,0,0.366,0.162,0.366,0.364v4.773c0,0.203,0.166,0.367,0.367,0.367h3.646c0.203,0,0.365-0.165,0.365-0.367v-6.196
		c0-0.202-0.119-0.475-0.273-0.604L-16.694,12.843z"/>
	<path fill="#2E2E2D" d="M-11.057,13.378c0.146,0.134,0.269,0.08,0.269-0.119v-2.881c0-0.201-0.164-0.365-0.362-0.365h-2.151
		c-0.202,0-0.365,0.164-0.365,0.365v0.255c0,0.2,0.119,0.476,0.271,0.61L-11.057,13.378z"/>
</g>
<linearGradient id="SVGID_3_" gradientUnits="userSpaceOnUse" x1="851.1592" y1="2023.6465" x2="851.1592" y2="1989.5366" gradientTransform="matrix(1 0 0 -1 -732.1602 2023.4805)">
	<stop  offset="0" style="stop-color:#F01B57"/>
	<stop  offset="1" style="stop-color:#D31147"/>
</linearGradient>
<rect x="102" fill="url(#SVGID_3_)" width="34" height="34"/>
<g>
	<path fill="#0000FF" d="M128.125,16.988l-8.615-7.855c-0.13-0.118-0.314-0.146-0.508-0.125c-0.195-0.021-0.38,0.006-0.512,0.125
		l-8.614,7.855c-0.31,0.283-0.228,0.88,0.188,1.332c0.416,0.455,1.002,0.599,1.313,0.313l7.623-6.95l7.626,6.951
		c0.31,0.283,0.897,0.146,1.312-0.309C128.352,17.868,128.434,17.271,128.125,16.988z"/>
	<path fill="#0000FF" d="M119.307,12.843c-0.148-0.133-0.397-0.135-0.551-0.001l-5.738,4.992c-0.15,0.128-0.275,0.402-0.275,0.604
		v6.196c0,0.203,0.162,0.367,0.363,0.367h3.685c0.202,0,0.364-0.165,0.364-0.367V19.86c0-0.202,0.164-0.364,0.365-0.364h2.955
		c0.205,0,0.366,0.162,0.366,0.364v4.773c0,0.203,0.166,0.367,0.367,0.367h3.646c0.203,0,0.365-0.165,0.365-0.367v-6.196
		c0-0.202-0.119-0.475-0.273-0.604L119.307,12.843z"/>
	<path fill="#0000FF" d="M124.943,13.378c0.146,0.134,0.269,0.08,0.269-0.119v-2.881c0-0.201-0.164-0.365-0.362-0.365h-2.15
		c-0.202,0-0.365,0.164-0.365,0.365v0.255c0,0.2,0.119,0.476,0.271,0.61L124.943,13.378z"/>
</g>
<linearGradient id="SVGID_4_" gradientUnits="userSpaceOnUse" x1="783.1592" y1="2023.6465" x2="783.1592" y2="1989.5366" gradientTransform="matrix(1 0 0 -1 -732.1602 2023.4805)">
	<stop  offset="0" style="stop-color:#F01B57"/>
	<stop  offset="1" style="stop-color:#D31147"/>
</linearGradient>
<rect x="34" fill="url(#SVGID_4_)" width="34" height="34"/>
<g>
	<path fill="#0000FF" d="M60.125,16.988L51.51,9.133c-0.13-0.118-0.314-0.146-0.508-0.125c-0.195-0.021-0.38,0.006-0.512,0.125
		l-8.614,7.855c-0.31,0.283-0.227,0.88,0.188,1.332c0.416,0.455,1.002,0.599,1.313,0.313L51,11.683l7.626,6.951
		c0.31,0.283,0.897,0.146,1.312-0.309C60.352,17.868,60.434,17.271,60.125,16.988z"/>
	<path fill="#0000FF" d="M51.306,12.843c-0.149-0.133-0.398-0.135-0.55-0.001l-5.739,4.992c-0.151,0.128-0.276,0.402-0.276,0.604
		v6.196c0,0.203,0.164,0.367,0.365,0.367h3.683c0.202,0,0.366-0.165,0.366-0.367V19.86c0-0.202,0.164-0.364,0.365-0.364h2.955
		c0.205,0,0.366,0.162,0.366,0.364v4.773c0,0.203,0.166,0.367,0.367,0.367h3.646c0.203,0,0.365-0.165,0.365-0.367v-6.196
		c0-0.202-0.119-0.475-0.273-0.604L51.306,12.843z"/>
	<path fill="#0000FF" d="M56.943,13.378c0.146,0.134,0.269,0.08,0.269-0.119v-2.881c0-0.201-0.164-0.365-0.362-0.365h-2.151
		c-0.202,0-0.365,0.164-0.365,0.365v0.255c0,0.2,0.119,0.476,0.271,0.61L56.943,13.378z"/>
</g>
<linearGradient id="SVGID_5_" gradientUnits="userSpaceOnUse" x1="817.1592" y1="2023.6465" x2="817.1592" y2="1989.5366" gradientTransform="matrix(1 0 0 -1 -732.1602 2023.4805)">
	<stop  offset="0" style="stop-color:#F01B57"/>
	<stop  offset="1" style="stop-color:#D31147"/>
</linearGradient>
<rect x="68" fill="url(#SVGID_5_)" width="34" height="34"/>
<g>
	<path fill="#0000FF" d="M94.125,16.988L85.51,9.133c-0.129-0.118-0.313-0.146-0.508-0.125c-0.193-0.021-0.379,0.006-0.512,0.125
		l-8.613,7.855c-0.311,0.283-0.229,0.88,0.188,1.332c0.416,0.455,1.002,0.599,1.313,0.313L85,11.683l7.627,6.951
		c0.309,0.283,0.896,0.146,1.311-0.309C94.352,17.868,94.434,17.271,94.125,16.988z"/>
	<path fill="#0000FF" d="M85.307,12.843c-0.147-0.133-0.397-0.135-0.551-0.001l-5.738,4.992c-0.149,0.128-0.274,0.402-0.274,0.604
		v6.196c0,0.203,0.163,0.367,0.364,0.367h3.683c0.203,0,0.366-0.165,0.366-0.367V19.86c0-0.202,0.164-0.364,0.365-0.364h2.953
		c0.205,0,0.367,0.162,0.367,0.364v4.773c0,0.203,0.166,0.367,0.367,0.367h3.645c0.203,0,0.365-0.165,0.365-0.367v-6.196
		c0-0.202-0.119-0.475-0.273-0.604L85.307,12.843z"/>
	<path fill="#0000FF" d="M90.943,13.378c0.146,0.134,0.27,0.08,0.27-0.119v-2.881c0-0.201-0.164-0.365-0.363-0.365H88.7
		c-0.203,0-0.365,0.164-0.365,0.365v0.255c0,0.2,0.119,0.476,0.271,0.61L90.943,13.378z"/>
</g>
</svg>
