<?xml version="1.0" encoding="utf-8"?>
<!-- Generator: Adobe Illustrator 15.0.2, SVG Export Plug-In . SVG Version: 6.00 Build 0)  -->
<!DOCTYPE svg PUBLIC "-//W3C//DTD SVG 1.1//EN" "http://www.w3.org/Graphics/SVG/1.1/DTD/svg11.dtd">
<svg version="1.1" id="Calque_1" xmlns="http://www.w3.org/2000/svg" xmlns:xlink="http://www.w3.org/1999/xlink" x="0px" y="0px"
	 width="169.999px" height="34px" viewBox="-34 0 169.999 34" enable-background="new -34 0 169.999 34" xml:space="preserve">
<linearGradient id="SVGID_1_" gradientUnits="userSpaceOnUse" x1="749.1592" y1="2023.6465" x2="749.1592" y2="1989.5366" gradientTransform="matrix(1 0 0 -1 -732.1602 2023.4805)">
	<stop  offset="0" style="stop-color:#D31147"/>
	<stop  offset="1" style="stop-color:#F01B57"/>
</linearGradient>
<rect fill="url(#SVGID_1_)" width="34" height="34"/>
<path fill="#2E2E2D" d="M16.991,9c-4.51,0-4.292,5.567-4.292,5.567s-0.625-0.081-0.625,0.843c0,0.923,0.652,0.923,0.652,0.923
	c0,0.952,1.82,2.526,1.82,2.526V19.4C10.662,19.402,9.602,25,9.602,25h14.796c0,0-1.063-5.598-4.941-5.598v-0.541
	c0,0,1.816-1.576,1.816-2.527c0,0,0.656,0,0.656-0.924c0-0.922-0.625-0.843-0.625-0.843S21.521,9,17.012,9H16.991z"/>
<linearGradient id="SVGID_2_" gradientUnits="userSpaceOnUse" x1="715.1592" y1="2023.6465" x2="715.1592" y2="1989.5366" gradientTransform="matrix(1 0 0 -1 -732.1602 2023.4805)">
	<stop  offset="0" style="stop-color:#D31147"/>
	<stop  offset="1" style="stop-color:#F01B57"/>
</linearGradient>
<rect x="-34" fill="url(#SVGID_2_)" width="34" height="34"/>
<path fill="#2E2E2D" d="M-17.009,9c-4.51,0-4.292,5.567-4.292,5.567s-0.625-0.081-0.625,0.843c0,0.923,0.652,0.923,0.652,0.923
	c0,0.952,1.82,2.526,1.82,2.526V19.4c-3.884,0.002-4.944,5.6-4.944,5.6h14.796c0,0-1.063-5.598-4.941-5.598v-0.541
	c0,0,1.816-1.576,1.816-2.527c0,0,0.656,0,0.656-0.924c0-0.922-0.625-0.843-0.625-0.843S-12.479,9-16.988,9H-17.009z"/>
<linearGradient id="SVGID_3_" gradientUnits="userSpaceOnUse" x1="851.1582" y1="2023.6465" x2="851.1582" y2="1989.5366" gradientTransform="matrix(1 0 0 -1 -732.1602 2023.4805)">
	<stop  offset="0" style="stop-color:#F01B57"/>
	<stop  offset="1" style="stop-color:#D31147"/>
</linearGradient>
<rect x="101.999" fill="url(#SVGID_3_)" width="34" height="34"/>
<path fill="#0000FF" d="M118.99,9c-4.511,0-4.292,5.567-4.292,5.567s-0.625-0.081-0.625,0.843c0,0.923,0.65,0.923,0.65,0.923
	c0,0.952,1.82,2.526,1.82,2.526V19.4c-3.884,0.002-4.943,5.6-4.943,5.6h14.797c0,0-1.063-5.598-4.941-5.598v-0.541
	c0,0,1.816-1.576,1.816-2.527c0,0,0.656,0,0.656-0.924c0-0.922-0.625-0.843-0.625-0.843S123.521,9,119.013,9H118.99z"/>
<linearGradient id="SVGID_4_" gradientUnits="userSpaceOnUse" x1="783.1582" y1="2023.6465" x2="783.1582" y2="1989.5366" gradientTransform="matrix(1 0 0 -1 -732.1602 2023.4805)">
	<stop  offset="0" style="stop-color:#F01B57"/>
	<stop  offset="1" style="stop-color:#D31147"/>
</linearGradient>
<rect x="33.999" fill="url(#SVGID_4_)" width="34" height="34"/>
<path fill="#0000FF" d="M50.991,9c-4.51,0-4.292,5.567-4.292,5.567s-0.625-0.081-0.625,0.843c0,0.923,0.653,0.923,0.653,0.923
	c0,0.952,1.82,2.526,1.82,2.526V19.4c-3.885,0.002-4.946,5.6-4.946,5.6h14.796c0,0-1.063-5.598-4.94-5.598v-0.541
	c0,0,1.815-1.576,1.815-2.527c0,0,0.656,0,0.656-0.924c0-0.922-0.625-0.843-0.625-0.843S55.522,9,51.011,9H50.991z"/>
<linearGradient id="SVGID_5_" gradientUnits="userSpaceOnUse" x1="817.1582" y1="2023.6465" x2="817.1582" y2="1989.5366" gradientTransform="matrix(1 0 0 -1 -732.1602 2023.4805)">
	<stop  offset="0" style="stop-color:#F01B57"/>
	<stop  offset="1" style="stop-color:#D31147"/>
</linearGradient>
<rect x="67.999" fill="url(#SVGID_5_)" width="34" height="34"/>
<path fill="#0000FF" d="M84.991,9c-4.51,0-4.292,5.567-4.292,5.567s-0.625-0.081-0.625,0.843c0,0.923,0.653,0.923,0.653,0.923
	c0,0.952,1.818,2.526,1.818,2.526V19.4c-3.885,0.002-4.945,5.6-4.945,5.6h14.797c0,0-1.063-5.598-4.94-5.598v-0.541
	c0,0,1.815-1.576,1.815-2.527c0,0,0.656,0,0.656-0.924c0-0.922-0.625-0.843-0.625-0.843S89.522,9,85.011,9H84.991z"/>
</svg>
