<?xml version="1.0" encoding="utf-8"?>
<!-- Generator: Adobe Illustrator 15.0.2, SVG Export Plug-In . SVG Version: 6.00 Build 0)  -->
<!DOCTYPE svg PUBLIC "-//W3C//DTD SVG 1.1//EN" "http://www.w3.org/Graphics/SVG/1.1/DTD/svg11.dtd">
<svg version="1.1" id="Calque_1" xmlns="http://www.w3.org/2000/svg" xmlns:xlink="http://www.w3.org/1999/xlink" x="0px" y="0px"
	 width="34px" height="34px" viewBox="0 0 34 34" enable-background="new 0 0 34 34" xml:space="preserve">
<linearGradient id="SVGID_1_" gradientUnits="userSpaceOnUse" x1="209.5996" y1="-274.7939" x2="209.5996" y2="-308.9038" gradientTransform="matrix(1 0 0 -1 -192.5996 -274.96)">
	<stop  offset="0" style="stop-color:#D31147"/>
	<stop  offset="1" style="stop-color:#F01B57"/>
</linearGradient>
<rect fill="url(#SVGID_1_)" width="34" height="34"/>
<g>
	<path fill="#2E2E2D" d="M26.125,16.988L17.51,9.133c-0.13-0.118-0.314-0.147-0.508-0.125c-0.195-0.022-0.38,0.006-0.512,0.125
		l-8.614,7.855c-0.31,0.283-0.227,0.88,0.188,1.333c0.416,0.455,1.002,0.598,1.313,0.313L17,11.683l7.626,6.951
		c0.31,0.283,0.897,0.146,1.312-0.309C26.352,17.868,26.434,17.272,26.125,16.988z"/>
	<path fill="#2E2E2D" d="M17.306,12.843c-0.149-0.133-0.398-0.135-0.55-0.001l-5.739,4.992c-0.151,0.128-0.276,0.402-0.276,0.604
		v6.196c0,0.203,0.164,0.367,0.365,0.367h3.683c0.202,0,0.366-0.165,0.366-0.367v-4.774c0-0.203,0.164-0.365,0.365-0.365h2.955
		c0.205,0,0.366,0.162,0.366,0.365v4.774c0,0.203,0.166,0.367,0.367,0.367h3.646c0.203,0,0.365-0.165,0.365-0.367v-6.196
		c0-0.203-0.119-0.475-0.273-0.604L17.306,12.843z"/>
	<path fill="#2E2E2D" d="M22.943,13.378c0.146,0.134,0.269,0.08,0.269-0.119v-2.881c0-0.201-0.164-0.365-0.362-0.365h-2.152
		c-0.202,0-0.365,0.164-0.365,0.365v0.255c0,0.2,0.119,0.476,0.271,0.61L22.943,13.378z"/>
</g>
</svg>
