<?xml version="1.0" encoding="utf-8"?>
<!-- Generator: Adobe Illustrator 15.0.2, SVG Export Plug-In . SVG Version: 6.00 Build 0)  -->
<!DOCTYPE svg PUBLIC "-//W3C//DTD SVG 1.1//EN" "http://www.w3.org/Graphics/SVG/1.1/DTD/svg11.dtd">
<svg version="1.1" id="Calque_1" xmlns="http://www.w3.org/2000/svg" xmlns:xlink="http://www.w3.org/1999/xlink" x="0px" y="0px"
	 width="22px" height="18px" viewBox="0 -1 22 18" enable-background="new 0 -1 22 18" xml:space="preserve">
<circle fill="#D3117E" cx="10" cy="9" r="8"/>
<g>
	<g>
		<polygon fill="#5F5F77" points="8.84,5.048 8.84,4.487 8.84,3.915 7.719,3.915 7.719,4.487 7.719,5.048 7.719,5.622 8.84,5.622 		
			"/>
		<polygon fill="#5F5F77" points="12.279,5.048 12.279,4.487 12.279,3.915 11.158,3.915 11.158,4.487 11.158,5.048 11.158,5.622 
			12.279,5.622 		"/>
		<polygon fill="#5F5F77" points="12.879,5.06 12.879,6.195 10.562,6.195 10.562,5.06 9.438,5.06 9.438,6.195 7.122,6.195 
			7.122,5.06 6,5.06 6,6.195 6,7.329 7.122,7.329 9.438,7.329 10.562,7.329 12.879,7.329 14,7.329 14,6.195 14,5.06 		"/>
	</g>
	<path fill="#5F5F77" d="M6,7.926v5.157h7.999V7.926H6z M8.279,11.9H7.168v-1.108h1.111V11.9z M8.279,10.184H7.168V9.072h1.111
		V10.184z M10.573,11.9h-1.11v-1.108h1.11V11.9z M10.573,10.184h-1.11V9.072h1.11V10.184z M12.863,11.9h-1.109v-1.108h1.109V11.9z
		 M12.863,10.184h-1.109V9.072h1.109V10.184z"/>
</g>
</svg>
