<?xml version="1.0" encoding="utf-8"?>
<!-- Generator: Adobe Illustrator 15.0.2, SVG Export Plug-In . SVG Version: 6.00 Build 0)  -->
<!DOCTYPE svg PUBLIC "-//W3C//DTD SVG 1.1//EN" "http://www.w3.org/Graphics/SVG/1.1/DTD/svg11.dtd">
<svg version="1.1" id="Calque_1" xmlns="http://www.w3.org/2000/svg" xmlns:xlink="http://www.w3.org/1999/xlink" x="0px" y="0px"
	 width="80px" height="80px" viewBox="0 0 80 80" enable-background="new 0 0 80 80" xml:space="preserve">
<g>
	<path fill="#FFFBFF" d="M57.84,52.156c4.339-4.473,7.017-10.576,7.017-17.303C64.856,21.128,53.727,10,39.999,10
		S15.143,21.128,15.143,34.854c0,6.73,2.676,12.828,7.02,17.303l-0.01-0.006l0.173,0.172c0.069,0.072,0.136,0.138,0.202,0.204L40,70
		l17.462-17.462c0.078-0.077,0.148-0.148,0.226-0.222l0.164-0.166L57.84,52.156z"/>
	<path fill="#DFFFEF" d="M56.661,51.352c4.056-4.177,6.555-9.875,6.555-16.158c0-12.821-10.397-23.212-23.217-23.212
		c-12.821,0-23.214,10.395-23.214,23.212c0,6.283,2.501,11.981,6.555,16.158l-0.01-0.004l0.163,0.163
		c0.064,0.064,0.128,0.129,0.189,0.19L40,68.018L56.31,51.71c0.071-0.07,0.141-0.138,0.211-0.208l0.152-0.157L56.661,51.352z"/>
	<circle fill="#FFFFFF" cx="40" cy="35.192" r="19.442"/>
	
		<radialGradient id="SVGID_1_" cx="1783.5596" cy="-2565.5518" r="19.4424" gradientTransform="matrix(1 0 0 -1 -1743.5586 -2530.3594)" gradientUnits="userSpaceOnUse">
		<stop  offset="0" style="stop-color:#FFFFFF;stop-opacity:0"/>
		<stop  offset="0.3726" style="stop-color:#FDFDFD;stop-opacity:0.1304"/>
		<stop  offset="0.5069" style="stop-color:#F6F6F6;stop-opacity:0.1774"/>
		<stop  offset="0.6026" style="stop-color:#EBEBEB;stop-opacity:0.2109"/>
		<stop  offset="0.68" style="stop-color:#DADADA;stop-opacity:0.238"/>
		<stop  offset="0.7463" style="stop-color:#C4C4C4;stop-opacity:0.2612"/>
		<stop  offset="0.805" style="stop-color:#A8A8A8;stop-opacity:0.2817"/>
		<stop  offset="0.8581" style="stop-color:#888888;stop-opacity:0.3003"/>
		<stop  offset="0.9069" style="stop-color:#626262;stop-opacity:0.3174"/>
		<stop  offset="0.9523" style="stop-color:#373737;stop-opacity:0.3333"/>
		<stop  offset="0.9926" style="stop-color:#090909;stop-opacity:0.3474"/>
		<stop  offset="1" style="stop-color:#8A11A8;stop-opacity:0.35"/>
	</radialGradient>
	<circle fill="url(#SVGID_1_)" cx="40" cy="35.192" r="19.442"/>
	<path d="M32.701,43.717c0.276-0.017,0.547-0.049,0.813-0.094c1.063-0.203,1.982-0.641,2.77-1.146
		c1.569-1.043,2.745-2.286,3.895-3.49c1.14-1.212,2.186-2.451,3.235-3.656c1.036-1.21,2.074-2.404,3.212-3.421
		c0.565-0.51,1.156-0.976,1.791-1.316c0.312-0.172,0.64,0.466,0.973,0.38c0.185-0.047,0.281-0.074,0.507-0.095
		c0.163-0.017,0.383-0.025,0.569-0.036c1.907-0.067,2.829-0.039,4.698,0.406l0.016,0.001c0.079,0.02,0.168-0.021,0.202-0.1
		c0.037-0.091-0.005-0.194-0.095-0.231c-1.518-0.651-3.137-1.775-4.786-1.935c-0.417-0.038-0.843-0.083-1.333-0.02
		c-0.461,0.054-0.908,0.173-1.324,0.329c-0.484,0.18-0.937,0.405-1.365,0.652c-0.321,0.182-0.633,0.377-0.935,0.579
		c-2.77,1.963-4.957,4.394-7.315,6.445c-1.169,1.02-2.426,1.923-3.654,2.487c-0.608,0.288-1.193,0.483-1.717,0.573
		c-0.131,0.025-0.261,0.042-0.384,0.054c-0.127,0.008-0.225,0.008-0.453,0.012c-0.248,0.009-0.596-0.01-0.881-0.051
		c-1.186-0.134-2.312-0.643-3.371-1.572c-1.038-0.932-1.963-2.203-2.782-3.619l-0.007-0.016c-0.029-0.048-0.082-0.084-0.141-0.089
		c-0.049-0.003-0.091,0.013-0.127,0.042c-0.038,0.029-0.066,0.074-0.069,0.125c-0.146,1.724,0.244,3.484,1.183,5.093
		c0.908,1.612,2.626,3.003,4.612,3.482c0.505,0.123,0.956,0.197,1.512,0.234C32.121,43.735,32.426,43.732,32.701,43.717z"/>
	<path d="M31.479,37.254c0.413,0.098,0.784,0.158,1.237,0.188c0.143,0.016,0.39,0.011,0.614,0.001
		c0.227-0.015,0.448-0.042,0.665-0.078c0.868-0.165,1.618-0.522,2.264-0.935c1.283-0.851,2.242-1.872,3.183-2.854
		c0.931-0.99,1.788-2.002,2.645-2.989c0.813-0.946,1.62-1.873,2.504-2.678c0.038-0.039,0.079-0.079,0.122-0.117
		c0.461-0.418,0.944-0.022,1.461-0.303c0.257-0.14,0.524-0.251,0.797-0.322c0.15-0.036,0.228-0.059,0.416-0.078
		c0.129-0.014,0.308-0.024,0.466-0.03c1.272-0.047,2.585,0.033,3.838,0.332l0.014,0.001c0.067,0.017,0.138-0.018,0.161-0.084
		c0.034-0.072-0.002-0.157-0.075-0.188c-1.245-0.532-2.566-1.592-3.915-1.723c-0.341-0.03-0.688-0.066-1.087-0.015
		c-0.379,0.044-0.743,0.141-1.084,0.267c-0.685,0.255-1.3,0.616-1.877,1.006c-2.264,1.603-4.052,3.588-5.979,5.264
		c-0.954,0.836-1.981,1.575-2.986,2.032c-0.497,0.235-0.977,0.396-1.402,0.467c-0.106,0.021-0.211,0.034-0.313,0.045
		c-0.104,0.007-0.186,0.005-0.368,0.01c-0.205,0.006-0.492-0.009-0.722-0.043c-0.971-0.109-1.889-0.523-2.752-1.282
		c-0.851-0.764-1.605-1.801-2.275-2.96l-0.006-0.013c-0.025-0.04-0.067-0.068-0.115-0.073c-0.08-0.007-0.154,0.053-0.163,0.136
		c-0.047,0.541-0.024,1.083,0.058,1.625c0.134,0.868,0.438,1.729,0.91,2.54C28.453,35.724,29.856,36.861,31.479,37.254z"/>
	<g>
		<path fill="#D31147" d="M32.701,44.49c0.276-0.018,0.547-0.049,0.813-0.096c1.063-0.201,1.982-0.641,2.77-1.145
			c1.569-1.045,2.745-2.288,3.895-3.49c1.14-1.213,2.186-2.454,3.235-3.66c1.036-1.209,2.074-2.401,3.212-3.42
			c0.565-0.511,1.156-0.974,1.791-1.316c0.312-0.172,0.64-0.307,0.973-0.395c0.185-0.046,0.281-0.074,0.507-0.095
			c0.163-0.016,0.383-0.027,0.569-0.034c1.559-0.057,3.162,0.04,4.698,0.405l0.016,0.003c0.079,0.018,0.168-0.023,0.202-0.102
			c0.037-0.09-0.005-0.192-0.095-0.232c-1.518-0.65-3.137-1-4.786-1.163c-0.417-0.036-0.843-0.079-1.333-0.019
			c-0.461,0.055-0.908,0.173-1.324,0.329c-0.484,0.178-0.937,0.404-1.365,0.651c-0.321,0.183-0.633,0.377-0.935,0.581
			c-2.77,1.962-4.957,4.391-7.315,6.443c-1.169,1.021-2.426,1.922-3.654,2.485c-0.608,0.285-1.193,0.485-1.717,0.57
			c-0.131,0.025-0.261,0.043-0.384,0.055c-0.127,0.006-0.225,0.006-0.453,0.012c-0.248,0.012-0.596-0.01-0.881-0.052
			c-1.186-0.132-2.312-0.642-3.371-1.569c-1.038-0.933-1.963-2.203-2.782-3.619L24.98,35.6c-0.029-0.047-0.082-0.083-0.141-0.087
			c-0.049-0.004-0.091,0.014-0.127,0.041c-0.038,0.028-0.066,0.074-0.069,0.125c-0.146,1.725,0.244,3.485,1.183,5.093
			c0.908,1.613,2.626,3,4.612,3.483c0.505,0.118,0.956,0.192,1.512,0.235C32.121,44.508,32.426,44.504,32.701,44.49z"/>
		<path fill="#D31147" d="M31.479,38.026c0.413,0.099,0.784,0.159,1.237,0.19c0.143,0.016,0.39,0.013,0.614,0.001
			c0.227-0.014,0.448-0.039,0.665-0.078c0.868-0.165,1.618-0.522,2.264-0.938c1.283-0.852,2.242-1.87,3.183-2.853
			c0.931-0.991,1.788-2.004,2.645-2.987c0.813-0.945,1.62-1.871,2.504-2.679c0.038-0.038,0.079-0.08,0.122-0.12
			c0.461-0.418,0.944-0.795,1.461-1.075c0.257-0.141,0.524-0.251,0.797-0.322c0.15-0.038,0.228-0.06,0.416-0.077
			c0.129-0.016,0.308-0.024,0.466-0.032c1.272-0.047,2.585,0.033,3.838,0.332l0.014,0.001c0.067,0.018,0.138-0.018,0.161-0.082
			c0.034-0.072-0.002-0.158-0.075-0.19c-1.245-0.532-2.566-0.817-3.915-0.948c-0.341-0.03-0.688-0.067-1.087-0.016
			c-0.379,0.043-0.743,0.141-1.084,0.267c-0.685,0.257-1.3,0.618-1.877,1.008c-2.264,1.603-4.052,3.588-5.979,5.264
			c-0.954,0.835-1.981,1.574-2.986,2.033c-0.497,0.234-0.977,0.395-1.402,0.467c-0.106,0.021-0.211,0.035-0.313,0.045
			c-0.104,0.008-0.186,0.007-0.368,0.01c-0.205,0.008-0.492-0.008-0.722-0.043c-0.971-0.106-1.889-0.525-2.752-1.282
			c-0.851-0.761-1.605-1.801-2.275-2.958l-0.006-0.014c-0.025-0.04-0.067-0.07-0.115-0.073c-0.08-0.006-0.154,0.054-0.163,0.138
			c-0.047,0.538-0.024,1.079,0.058,1.624c0.134,0.867,0.438,1.728,0.91,2.541C28.453,36.498,29.856,37.635,31.479,38.026z"/>
	</g>
</g>
</svg>
