<?xml version="1.0" encoding="utf-8"?>
<!-- Generator: Adobe Illustrator 15.0.2, SVG Export Plug-In . SVG Version: 6.00 Build 0)  -->
<!DOCTYPE svg PUBLIC "-//W3C//DTD SVG 1.1//EN" "http://www.w3.org/Graphics/SVG/1.1/DTD/svg11.dtd">
<svg version="1.1" id="Calque_1" xmlns="http://www.w3.org/2000/svg" xmlns:xlink="http://www.w3.org/1999/xlink" x="0px" y="0px"
	 width="80px" height="80px" viewBox="0 0 80 80" enable-background="new 0 0 80 80" xml:space="preserve">
<path fill="#DFFFEF" d="M61.529,54.672C66.77,49.271,70,41.91,70,33.791c0-16.568-13.432-30-30-30c-16.568,0-30,13.432-30,30
	c0,8.12,3.23,15.48,8.471,20.881l-0.016-0.006l0.211,0.211c0.082,0.084,0.164,0.166,0.247,0.248L40,76.209l21.076-21.074
	c0.09-0.09,0.179-0.178,0.268-0.268l0.201-0.201L61.529,54.672z"/>
<circle fill="#FFFFFF" cx="40" cy="33.625" r="25.125"/>
<path d="M30.568,44.641c0.355-0.021,0.706-0.063,1.05-0.123c1.371-0.263,2.56-0.828,3.579-1.48c2.027-1.348,3.547-2.957,5.032-4.511
	c1.473-1.566,2.824-3.169,4.18-4.726c1.341-1.566,2.681-3.106,4.151-4.421c0.729-0.659,1.496-1.258,2.312-1.701
	c0.407-0.222,0.828,0.603,1.256,0.49c0.238-0.059,0.363-0.095,0.657-0.122c0.205-0.022,0.492-0.035,0.734-0.047
	c2.465-0.089,3.655-0.051,6.07,0.524l0.02,0.004c0.104,0.025,0.216-0.029,0.261-0.131c0.049-0.116-0.005-0.248-0.12-0.299
	c-1.965-0.84-4.057-2.292-6.189-2.5c-0.533-0.048-1.086-0.105-1.719-0.024c-0.597,0.07-1.171,0.223-1.712,0.424
	c-0.624,0.232-1.206,0.523-1.765,0.841c-0.415,0.237-0.815,0.488-1.203,0.75c-3.581,2.536-6.409,5.676-9.455,8.326
	c-1.509,1.319-3.133,2.488-4.722,3.214c-0.785,0.37-1.542,0.624-2.218,0.739c-0.169,0.033-0.335,0.054-0.497,0.069
	c-0.163,0.011-0.291,0.011-0.585,0.015c-0.321,0.012-0.772-0.013-1.139-0.066c-1.535-0.17-2.988-0.83-4.355-2.03
	c-1.342-1.206-2.537-2.848-3.595-4.677l-0.012-0.021c-0.036-0.063-0.104-0.108-0.182-0.115c-0.063-0.006-0.117,0.016-0.164,0.052
	c-0.048,0.039-0.084,0.095-0.09,0.162c-0.187,2.228,0.314,4.502,1.53,6.582c1.173,2.084,3.391,3.881,5.958,4.502
	c0.654,0.155,1.238,0.251,1.954,0.303C29.818,44.66,30.212,44.656,30.568,44.641z"/>
<path d="M28.989,36.286c0.533,0.127,1.012,0.205,1.597,0.245c0.186,0.02,0.505,0.015,0.796,0.003
	c0.292-0.019,0.578-0.052,0.858-0.101c1.122-0.214,2.093-0.676,2.926-1.211c1.657-1.099,2.898-2.417,4.113-3.687
	c1.203-1.28,2.307-2.59,3.417-3.862c1.048-1.222,2.096-2.42,3.232-3.462c0.053-0.049,0.104-0.103,0.158-0.152
	c0.598-0.539,1.223-0.028,1.891-0.39c0.332-0.181,0.678-0.324,1.025-0.417c0.195-0.047,0.297-0.077,0.538-0.099
	c0.167-0.019,0.399-0.029,0.601-0.039c1.646-0.06,3.342,0.042,4.963,0.429l0.015,0.003c0.087,0.021,0.178-0.024,0.214-0.108
	c0.04-0.094-0.003-0.203-0.1-0.244c-1.604-0.688-3.314-2.057-5.062-2.226c-0.437-0.04-0.887-0.086-1.401-0.02
	c-0.486,0.058-0.957,0.182-1.398,0.347c-0.889,0.331-1.684,0.797-2.426,1.3c-2.928,2.072-5.236,4.638-7.729,6.804
	c-1.233,1.079-2.562,2.034-3.859,2.626c-0.642,0.303-1.26,0.51-1.813,0.604c-0.138,0.027-0.273,0.044-0.407,0.057
	c-0.133,0.009-0.237,0.008-0.476,0.012c-0.263,0.01-0.632-0.011-0.932-0.054c-1.255-0.14-2.442-0.678-3.559-1.658
	c-1.098-0.985-2.074-2.327-2.939-3.823l-0.009-0.017c-0.029-0.052-0.086-0.089-0.148-0.094c-0.105-0.009-0.199,0.069-0.208,0.175
	c-0.06,0.697-0.033,1.398,0.075,2.097c0.173,1.123,0.563,2.234,1.175,3.282C25.078,34.311,26.891,35.779,28.989,36.286z"/>
<radialGradient id="SVGID_1_" cx="804.1602" cy="-993.1445" r="25.125" gradientTransform="matrix(1 0 0 -1 -764.1602 -959.5195)" gradientUnits="userSpaceOnUse">
	<stop  offset="0" style="stop-color:#FFFFFF;stop-opacity:0"/>
	<stop  offset="0.3726" style="stop-color:#FDFDFD;stop-opacity:0.1304"/>
	<stop  offset="0.5069" style="stop-color:#F6F6F6;stop-opacity:0.1774"/>
	<stop  offset="0.6026" style="stop-color:#EBEBEB;stop-opacity:0.2109"/>
	<stop  offset="0.68" style="stop-color:#DADADA;stop-opacity:0.238"/>
	<stop  offset="0.7463" style="stop-color:#C4C4C4;stop-opacity:0.2612"/>
	<stop  offset="0.805" style="stop-color:#A8A8A8;stop-opacity:0.2817"/>
	<stop  offset="0.8581" style="stop-color:#888888;stop-opacity:0.3003"/>
	<stop  offset="0.9069" style="stop-color:#626262;stop-opacity:0.3174"/>
	<stop  offset="0.9523" style="stop-color:#373737;stop-opacity:0.3333"/>
	<stop  offset="0.9926" style="stop-color:#090909;stop-opacity:0.3474"/>
	<stop  offset="1" style="stop-color:#8A11A8;stop-opacity:0.35"/>
</radialGradient>
<circle fill="url(#SVGID_1_)" cx="40" cy="33.625" r="25.125"/>
<g>
	<path fill="#D31147" d="M30.568,45.641c0.355-0.021,0.706-0.063,1.05-0.123c1.371-0.263,2.56-0.828,3.579-1.48
		c2.027-1.348,3.547-2.957,5.032-4.511c1.473-1.566,2.824-3.17,4.18-4.727c1.341-1.565,2.681-3.105,4.151-4.421
		c0.729-0.659,1.496-1.258,2.312-1.701c0.407-0.222,0.828-0.397,1.256-0.51c0.238-0.059,0.363-0.095,0.657-0.122
		c0.205-0.022,0.492-0.035,0.734-0.047c2.016-0.073,4.09,0.052,6.07,0.524l0.02,0.004c0.104,0.025,0.216-0.029,0.261-0.131
		c0.049-0.116-0.005-0.248-0.12-0.299c-1.965-0.84-4.057-1.292-6.189-1.5c-0.533-0.048-1.086-0.105-1.719-0.024
		c-0.597,0.07-1.171,0.223-1.712,0.424c-0.624,0.232-1.206,0.523-1.765,0.841c-0.415,0.237-0.815,0.488-1.203,0.75
		c-3.581,2.536-6.409,5.675-9.455,8.326c-1.509,1.32-3.133,2.488-4.722,3.215c-0.785,0.369-1.542,0.623-2.218,0.735
		c-0.169,0.033-0.335,0.057-0.497,0.07c-0.163,0.01-0.291,0.01-0.585,0.016c-0.321,0.013-0.772-0.014-1.139-0.065
		c-1.535-0.17-2.988-0.83-4.355-2.029c-1.342-1.206-2.537-2.848-3.595-4.678l-0.012-0.021c-0.036-0.063-0.104-0.108-0.182-0.114
		c-0.063-0.006-0.117,0.016-0.164,0.051c-0.048,0.039-0.084,0.096-0.09,0.162c-0.187,2.229,0.314,4.502,1.53,6.582
		c1.173,2.084,3.391,3.881,5.958,4.502c0.654,0.155,1.238,0.251,1.954,0.304C29.818,45.66,30.212,45.656,30.568,45.641z"/>
	<path fill="#D31147" d="M28.989,37.286c0.533,0.127,1.012,0.204,1.597,0.245c0.186,0.02,0.505,0.016,0.796,0.003
		c0.292-0.019,0.578-0.052,0.858-0.101c1.122-0.214,2.093-0.676,2.926-1.211c1.657-1.1,2.898-2.417,4.113-3.687
		c1.203-1.28,2.307-2.59,3.417-3.862c1.048-1.222,2.096-2.42,3.232-3.462c0.053-0.049,0.104-0.103,0.158-0.152
		c0.598-0.539,1.223-1.028,1.891-1.39c0.332-0.181,0.678-0.324,1.025-0.417c0.195-0.047,0.297-0.077,0.538-0.099
		c0.167-0.019,0.399-0.029,0.601-0.039c1.646-0.06,3.342,0.042,4.963,0.429l0.015,0.003c0.087,0.021,0.178-0.024,0.214-0.108
		c0.04-0.094-0.003-0.203-0.1-0.244c-1.604-0.688-3.314-1.057-5.062-1.226c-0.437-0.04-0.887-0.086-1.401-0.02
		c-0.486,0.058-0.957,0.182-1.398,0.347c-0.889,0.331-1.684,0.797-2.426,1.3c-2.928,2.072-5.236,4.638-7.729,6.804
		c-1.233,1.079-2.562,2.034-3.859,2.626c-0.642,0.303-1.26,0.51-1.813,0.604c-0.138,0.027-0.273,0.045-0.407,0.057
		c-0.133,0.01-0.237,0.008-0.476,0.012c-0.263,0.01-0.632-0.011-0.932-0.055c-1.255-0.139-2.442-0.678-3.559-1.658
		c-1.098-0.985-2.074-2.327-2.939-3.823l-0.009-0.017c-0.029-0.052-0.086-0.089-0.148-0.094c-0.105-0.009-0.199,0.069-0.208,0.175
		c-0.06,0.697-0.033,1.398,0.075,2.097c0.173,1.123,0.563,2.234,1.175,3.282C25.078,35.311,26.891,36.779,28.989,37.286z"/>
</g>
</svg>
