<?xml version="1.0" encoding="utf-8"?>
<!-- Generator: Adobe Illustrator 15.0.2, SVG Export Plug-In . SVG Version: 6.00 Build 0)  -->
<!DOCTYPE svg PUBLIC "-//W3C//DTD SVG 1.1//EN" "http://www.w3.org/Graphics/SVG/1.1/DTD/svg11.dtd">
<svg version="1.1" id="Calque_1" xmlns="http://www.w3.org/2000/svg" xmlns:xlink="http://www.w3.org/1999/xlink" x="0px" y="0px"
	 width="92px" height="56px" viewBox="0 0 92 56" enable-background="new 0 0 92 56" xml:space="preserve">
<path fill="#FFFBFF" d="M57.4,33.603c2.773-2.858,4.484-6.757,4.484-11.056c0-8.771-7.112-15.882-15.885-15.882
	c-8.772,0-15.883,7.111-15.883,15.882c0,4.3,1.71,8.197,4.486,11.056L34.595,33.6l0.111,0.11c0.044,0.046,0.087,0.088,0.129,0.131
	L46,45.006l11.158-11.158c0.05-0.049,0.096-0.095,0.144-0.142l0.105-0.107L57.4,33.603z"/>
<path fill="#DFFFEF" d="M56.647,33.09c2.591-2.67,4.188-6.311,4.188-10.326c0-8.192-6.643-14.833-14.836-14.833
	c-8.193,0-14.834,6.642-14.834,14.833c0,4.016,1.598,7.656,4.189,10.326l-0.007-0.003l0.104,0.104
	c0.041,0.042,0.082,0.082,0.121,0.122L46,43.74l10.422-10.422c0.046-0.045,0.089-0.088,0.134-0.132l0.099-0.101L56.647,33.09z"/>
<circle fill="#FFFFFF" cx="46" cy="22.764" r="12.424"/>
<radialGradient id="SVGID_1_" cx="1195.3594" cy="-1791.2031" r="12.4238" gradientTransform="matrix(1 0 0 -1 -1149.3594 -1768.4395)" gradientUnits="userSpaceOnUse">
	<stop  offset="0" style="stop-color:#FFFFFF;stop-opacity:0"/>
	<stop  offset="0.3726" style="stop-color:#FDFDFD;stop-opacity:0.1304"/>
	<stop  offset="0.5069" style="stop-color:#F6F6F6;stop-opacity:0.1774"/>
	<stop  offset="0.6026" style="stop-color:#EBEBEB;stop-opacity:0.2109"/>
	<stop  offset="0.68" style="stop-color:#DADADA;stop-opacity:0.238"/>
	<stop  offset="0.7463" style="stop-color:#C4C4C4;stop-opacity:0.2612"/>
	<stop  offset="0.805" style="stop-color:#A8A8A8;stop-opacity:0.2817"/>
	<stop  offset="0.8581" style="stop-color:#888888;stop-opacity:0.3003"/>
	<stop  offset="0.9069" style="stop-color:#626262;stop-opacity:0.3174"/>
	<stop  offset="0.9523" style="stop-color:#373737;stop-opacity:0.3333"/>
	<stop  offset="0.9926" style="stop-color:#090909;stop-opacity:0.3474"/>
	<stop  offset="1" style="stop-color:#8A11A8;stop-opacity:0.35"/>
</radialGradient>
<circle fill="url(#SVGID_1_)" cx="46" cy="22.764" r="12.424"/>
<path d="M41.336,28.211c0.176-0.011,0.35-0.031,0.52-0.06c0.679-0.13,1.266-0.41,1.77-0.733c1.002-0.666,1.754-1.461,2.489-2.23
	c0.729-0.775,1.396-1.566,2.067-2.336c0.662-0.774,1.325-1.536,2.053-2.186c0.36-0.326,0.738-0.623,1.143-0.841
	c0.2-0.109,0.409,0.298,0.622,0.243c0.118-0.03,0.179-0.047,0.324-0.06c0.103-0.011,0.244-0.017,0.363-0.023
	c1.219-0.043,1.808-0.025,3.002,0.259l0.01,0.001c0.051,0.013,0.107-0.014,0.129-0.064c0.024-0.058-0.003-0.124-0.06-0.148
	c-0.97-0.416-2.005-1.134-3.059-1.236c-0.265-0.024-0.538-0.053-0.851-0.013c-0.295,0.035-0.581,0.111-0.847,0.21
	c-0.309,0.115-0.598,0.259-0.873,0.417c-0.204,0.116-0.404,0.241-0.596,0.37c-1.77,1.255-3.168,2.808-4.675,4.119
	c-0.747,0.652-1.55,1.229-2.335,1.589c-0.388,0.184-0.762,0.309-1.097,0.366c-0.084,0.016-0.166,0.027-0.245,0.034
	c-0.081,0.005-0.144,0.005-0.29,0.008c-0.159,0.005-0.381-0.007-0.563-0.033c-0.758-0.085-1.477-0.411-2.154-1.004
	c-0.663-0.596-1.255-1.408-1.777-2.313l-0.005-0.01c-0.018-0.031-0.052-0.054-0.09-0.057c-0.031-0.002-0.058,0.008-0.081,0.026
	c-0.024,0.019-0.042,0.047-0.044,0.08c-0.093,1.102,0.156,2.227,0.756,3.255c0.58,1.03,1.678,1.919,2.947,2.225
	c0.323,0.078,0.611,0.126,0.966,0.15C40.965,28.222,41.16,28.22,41.336,28.211z"/>
<path d="M40.555,24.081c0.264,0.062,0.501,0.101,0.791,0.12c0.092,0.01,0.249,0.007,0.393,0.001c0.145-0.009,0.286-0.027,0.424-0.05
	c0.555-0.105,1.035-0.334,1.447-0.598c0.819-0.543,1.433-1.196,2.034-1.823c0.595-0.633,1.142-1.28,1.69-1.91
	c0.519-0.604,1.035-1.197,1.599-1.711c0.025-0.025,0.051-0.051,0.078-0.075c0.296-0.267,0.604-0.014,0.935-0.193
	c0.164-0.089,0.335-0.161,0.508-0.206c0.097-0.023,0.146-0.038,0.266-0.05c0.083-0.009,0.197-0.015,0.297-0.019
	c0.814-0.03,1.653,0.021,2.454,0.212l0.007,0.001c0.043,0.011,0.088-0.012,0.104-0.054c0.021-0.046-0.001-0.1-0.048-0.12
	c-0.795-0.34-1.64-1.017-2.502-1.101c-0.217-0.019-0.439-0.042-0.694-0.009c-0.242,0.028-0.474,0.09-0.693,0.171
	c-0.437,0.163-0.831,0.394-1.199,0.643c-1.447,1.024-2.59,2.293-3.821,3.364c-0.61,0.534-1.266,1.006-1.908,1.298
	c-0.318,0.15-0.624,0.253-0.896,0.298c-0.068,0.014-0.135,0.022-0.201,0.029c-0.066,0.004-0.118,0.003-0.235,0.006
	c-0.131,0.004-0.314-0.005-0.461-0.027c-0.621-0.07-1.207-0.335-1.759-0.82c-0.544-0.488-1.026-1.151-1.454-1.891l-0.004-0.008
	c-0.016-0.026-0.043-0.044-0.073-0.047c-0.052-0.004-0.099,0.034-0.104,0.087c-0.03,0.345-0.016,0.692,0.037,1.038
	c0.085,0.555,0.279,1.104,0.581,1.623C38.621,23.103,39.518,23.83,40.555,24.081z"/>
<g>
	<path fill="#D31147" d="M41.336,28.705c0.176-0.012,0.35-0.031,0.52-0.061c0.679-0.129,1.266-0.409,1.77-0.732
		c1.002-0.667,1.754-1.462,2.489-2.23c0.729-0.775,1.396-1.568,2.067-2.338c0.662-0.773,1.325-1.535,2.053-2.186
		c0.36-0.326,0.738-0.622,1.143-0.841c0.2-0.11,0.409-0.196,0.622-0.252c0.118-0.03,0.179-0.047,0.324-0.061
		c0.103-0.01,0.244-0.017,0.363-0.022c0.997-0.036,2.021,0.026,3.002,0.259l0.01,0.002c0.051,0.012,0.107-0.015,0.129-0.065
		c0.024-0.058-0.003-0.123-0.06-0.148c-0.97-0.416-2.005-0.64-3.059-0.743c-0.265-0.023-0.538-0.051-0.851-0.012
		c-0.295,0.035-0.581,0.111-0.847,0.21c-0.309,0.114-0.598,0.258-0.873,0.416c-0.204,0.117-0.404,0.241-0.596,0.371
		c-1.77,1.254-3.168,2.806-4.675,4.117c-0.747,0.653-1.55,1.229-2.335,1.589c-0.388,0.182-0.762,0.309-1.097,0.364
		c-0.084,0.016-0.166,0.027-0.245,0.035c-0.081,0.004-0.144,0.004-0.29,0.007c-0.159,0.007-0.381-0.006-0.563-0.033
		c-0.758-0.084-1.477-0.41-2.154-1.003c-0.663-0.596-1.255-1.408-1.777-2.313l-0.005-0.011c-0.018-0.03-0.052-0.053-0.09-0.056
		c-0.031-0.002-0.058,0.009-0.081,0.026c-0.024,0.018-0.042,0.047-0.044,0.08c-0.093,1.102,0.156,2.227,0.756,3.255
		c0.58,1.031,1.678,1.917,2.947,2.225c0.323,0.076,0.611,0.124,0.966,0.151C40.965,28.716,41.16,28.714,41.336,28.705z"/>
	<path fill="#D31147" d="M40.555,24.574c0.264,0.063,0.501,0.102,0.791,0.122c0.092,0.01,0.249,0.008,0.393,0.001
		c0.145-0.009,0.286-0.025,0.424-0.05c0.555-0.105,1.035-0.334,1.447-0.599c0.819-0.544,1.433-1.195,2.034-1.823
		c0.595-0.633,1.142-1.28,1.69-1.909c0.519-0.604,1.035-1.196,1.599-1.712c0.025-0.024,0.051-0.051,0.078-0.076
		c0.296-0.267,0.604-0.508,0.935-0.687c0.164-0.09,0.335-0.161,0.508-0.206c0.097-0.024,0.146-0.039,0.266-0.049
		c0.083-0.01,0.197-0.015,0.297-0.02c0.814-0.03,1.653,0.021,2.454,0.212l0.007,0.001c0.043,0.011,0.088-0.012,0.104-0.053
		c0.021-0.046-0.001-0.101-0.048-0.121c-0.795-0.34-1.64-0.522-2.502-0.606c-0.217-0.019-0.439-0.043-0.694-0.01
		c-0.242,0.028-0.474,0.09-0.693,0.171c-0.437,0.164-0.831,0.395-1.199,0.644c-1.447,1.024-2.59,2.293-3.821,3.364
		c-0.61,0.534-1.266,1.006-1.908,1.299c-0.318,0.149-0.624,0.252-0.896,0.298c-0.068,0.014-0.135,0.022-0.201,0.029
		c-0.066,0.005-0.118,0.004-0.235,0.006c-0.131,0.005-0.314-0.005-0.461-0.027c-0.621-0.068-1.207-0.336-1.759-0.82
		c-0.544-0.486-1.026-1.151-1.454-1.89l-0.004-0.009c-0.016-0.025-0.043-0.044-0.073-0.046c-0.052-0.004-0.099,0.034-0.104,0.087
		c-0.03,0.344-0.016,0.69,0.037,1.038c0.085,0.554,0.279,1.104,0.581,1.623C38.621,23.598,39.518,24.324,40.555,24.574z"/>
</g>
</svg>
