<?xml version="1.0" encoding="utf-8"?>
<!-- Generator: Adobe Illustrator 15.0.2, SVG Export Plug-In . SVG Version: 6.00 Build 0)  -->
<!DOCTYPE svg PUBLIC "-//W3C//DTD SVG 1.1//EN" "http://www.w3.org/Graphics/SVG/1.1/DTD/svg11.dtd">
<svg version="1.1" id="Calque_1" xmlns="http://www.w3.org/2000/svg" xmlns:xlink="http://www.w3.org/1999/xlink" x="0px" y="0px"
	 width="205px" height="205px" viewBox="0 0 205 205" enable-background="new 0 0 205 205" xml:space="preserve">
<path fill="#DFFFEF" d="M157.833,147.645c13.468-13.88,21.771-32.799,21.771-53.666c0-42.582-34.521-77.104-77.104-77.104
	S25.396,51.397,25.396,93.979c0,20.867,8.301,39.786,21.772,53.668l-0.042-0.017l0.542,0.544c0.21,0.213,0.421,0.425,0.635,0.634
	L102.5,203l54.169-54.165c0.23-0.229,0.458-0.458,0.687-0.688l0.518-0.517L157.833,147.645z"/>
<circle fill="#FFFFFF" cx="102.5" cy="93.978" r="64.573"/>
<radialGradient id="SVGID_1_" cx="866.6611" cy="-928.4971" r="64.5732" gradientTransform="matrix(1 0 0 -1 -764.1602 -834.5195)" gradientUnits="userSpaceOnUse">
	<stop  offset="0" style="stop-color:#FFFFFF;stop-opacity:0"/>
	<stop  offset="0.3726" style="stop-color:#FDFDFD;stop-opacity:0.1304"/>
	<stop  offset="0.5069" style="stop-color:#F6F6F6;stop-opacity:0.1774"/>
	<stop  offset="0.6026" style="stop-color:#EBEBEB;stop-opacity:0.2109"/>
	<stop  offset="0.68" style="stop-color:#DADADA;stop-opacity:0.238"/>
	<stop  offset="0.7463" style="stop-color:#C4C4C4;stop-opacity:0.2612"/>
	<stop  offset="0.805" style="stop-color:#A8A8A8;stop-opacity:0.2817"/>
	<stop  offset="0.8581" style="stop-color:#888888;stop-opacity:0.3003"/>
	<stop  offset="0.9069" style="stop-color:#626262;stop-opacity:0.3174"/>
	<stop  offset="0.9523" style="stop-color:#373737;stop-opacity:0.3333"/>
	<stop  offset="0.9926" style="stop-color:#090909;stop-opacity:0.3474"/>
	<stop  offset="1" style="stop-color:#8A11A8;stop-opacity:0.35"/>
</radialGradient>
<circle fill="url(#SVGID_1_)" cx="102.5" cy="93.978" r="64.573"/>
<path d="M78.258,122.29c0.913-0.056,1.815-0.159,2.7-0.314c3.523-0.677,6.579-2.13,9.198-3.81c5.21-3.461,9.118-7.6,12.932-11.594
	c3.787-4.025,7.258-8.145,10.744-12.146c3.445-4.025,6.889-7.983,10.67-11.362c1.872-1.695,3.844-3.233,5.94-4.373
	c1.047-0.569,2.128,1.549,3.229,1.26c0.611-0.151,0.933-0.245,1.688-0.314c0.527-0.056,1.265-0.09,1.888-0.12
	c6.334-0.229,9.396-0.132,15.603,1.346l0.049,0.01c0.267,0.064,0.555-0.074,0.67-0.336c0.126-0.298-0.014-0.637-0.308-0.769
	c-5.052-2.159-10.428-5.89-15.908-6.425c-1.371-0.124-2.792-0.27-4.419-0.063c-1.532,0.181-3.01,0.574-4.398,1.09
	c-1.604,0.596-3.101,1.344-4.535,2.161c-1.067,0.609-2.097,1.255-3.094,1.928c-9.202,6.518-16.471,14.588-24.3,21.399
	c-3.878,3.388-8.052,6.394-12.137,8.259c-2.017,0.952-3.962,1.604-5.699,1.9c-0.435,0.085-0.862,0.139-1.277,0.178
	c-0.419,0.027-0.748,0.027-1.503,0.039c-0.825,0.03-1.984-0.033-2.927-0.171c-3.944-0.437-7.679-2.132-11.192-5.217
	c-3.449-3.1-6.521-7.32-9.239-12.021L52.6,92.774c-0.093-0.163-0.267-0.279-0.468-0.296c-0.161-0.015-0.3,0.042-0.422,0.134
	c-0.123,0.101-0.215,0.245-0.231,0.417c-0.48,5.726,0.807,11.57,3.932,16.917c3.015,5.355,8.714,9.976,15.313,11.57
	c1.681,0.398,3.182,0.646,5.022,0.775C76.331,122.341,77.344,122.33,78.258,122.29z"/>
<path d="M74.2,100.818c1.371,0.326,2.601,0.527,4.105,0.631c0.478,0.05,1.298,0.037,2.046,0.007c0.75-0.049,1.485-0.135,2.206-0.26
	c2.883-0.551,5.378-1.738,7.519-3.112c4.258-2.825,7.448-6.213,10.571-9.477c3.093-3.291,5.93-6.658,8.78-9.927
	c2.691-3.139,5.383-6.219,8.309-8.896c0.136-0.125,0.269-0.265,0.404-0.39c1.538-1.385,3.144-0.072,4.861-1.002
	c0.852-0.466,1.742-0.833,2.636-1.072c0.502-0.12,0.762-0.198,1.383-0.255c0.43-0.049,1.026-0.074,1.545-0.1
	c4.229-0.154,8.588,0.11,12.755,1.103l0.033,0.008c0.224,0.054,0.458-0.063,0.552-0.278c0.102-0.242-0.009-0.521-0.255-0.627
	c-4.126-1.769-8.521-5.286-13.008-5.72c-1.122-0.103-2.279-0.221-3.602-0.05c-1.253,0.148-2.461,0.467-3.597,0.891
	c-2.282,0.85-4.326,2.048-6.233,3.342c-7.523,5.325-13.46,11.918-19.863,17.487c-3.169,2.773-6.583,5.228-9.917,6.75
	c-1.651,0.78-3.238,1.311-4.66,1.552c-0.354,0.071-0.702,0.113-1.045,0.146c-0.343,0.023-0.61,0.02-1.224,0.032
	c-0.677,0.025-1.625-0.03-2.396-0.14c-3.225-0.36-6.276-1.743-9.148-4.262c-2.822-2.531-5.33-5.979-7.554-9.825l-0.023-0.044
	c-0.075-0.134-0.221-0.228-0.379-0.242c-0.27-0.022-0.512,0.179-0.535,0.451c-0.155,1.792-0.085,3.592,0.191,5.391
	c0.446,2.884,1.448,5.741,3.021,8.434C64.149,95.741,68.809,99.515,74.2,100.818z"/>
<g>
	<path fill="#D31147" d="M78.258,124.86c0.913-0.057,1.815-0.161,2.7-0.317c3.523-0.675,6.579-2.128,9.198-3.807
		c5.21-3.462,9.118-7.601,12.932-11.595c3.787-4.024,7.258-8.146,10.744-12.149c3.445-4.021,6.889-7.979,10.67-11.362
		c1.872-1.695,3.844-3.232,5.94-4.373c1.047-0.569,2.128-1.02,3.229-1.31c0.611-0.152,0.933-0.245,1.688-0.313
		c0.527-0.057,1.265-0.09,1.888-0.121c5.18-0.188,10.511,0.133,15.603,1.347l0.049,0.01c0.267,0.064,0.555-0.074,0.67-0.337
		c0.126-0.298-0.014-0.637-0.308-0.769c-5.052-2.16-10.428-3.32-15.908-3.855c-1.371-0.124-2.792-0.271-4.419-0.063
		c-1.532,0.181-3.01,0.574-4.398,1.09c-1.604,0.596-3.101,1.344-4.535,2.161c-1.067,0.61-2.097,1.254-3.094,1.927
		c-9.202,6.519-16.471,14.585-24.3,21.399c-3.878,3.392-8.052,6.393-12.137,8.261c-2.017,0.948-3.962,1.603-5.699,1.893
		c-0.435,0.086-0.862,0.143-1.277,0.182c-0.419,0.024-0.748,0.024-1.503,0.037c-0.825,0.032-1.984-0.031-2.927-0.167
		c-3.944-0.438-7.679-2.134-11.192-5.215c-3.449-3.101-6.521-7.32-9.239-12.024L52.6,95.337c-0.093-0.162-0.267-0.277-0.468-0.292
		c-0.161-0.015-0.3,0.041-0.422,0.13c-0.123,0.101-0.215,0.247-0.231,0.417c-0.48,5.729,0.807,11.57,3.932,16.917
		c3.015,5.356,8.714,9.975,15.313,11.57c1.681,0.399,3.182,0.646,5.022,0.779C76.331,124.91,77.344,124.899,78.258,124.86z"/>
	<path fill="#D31147" d="M74.2,103.388c1.371,0.327,2.601,0.524,4.105,0.631c0.478,0.05,1.298,0.04,2.046,0.008
		c0.75-0.05,1.485-0.134,2.206-0.26c2.883-0.551,5.378-1.737,7.519-3.112c4.258-2.828,7.448-6.213,10.571-9.477
		c3.093-3.29,5.93-6.657,8.78-9.925c2.691-3.141,5.383-6.219,8.309-8.898c0.136-0.125,0.269-0.265,0.404-0.391
		c1.538-1.385,3.144-2.642,4.861-3.572c0.852-0.466,1.742-0.833,2.636-1.072c0.502-0.12,0.762-0.198,1.383-0.255
		c0.43-0.049,1.026-0.074,1.545-0.1c4.229-0.154,8.588,0.11,12.755,1.104l0.033,0.007c0.224,0.054,0.458-0.063,0.552-0.278
		c0.102-0.242-0.009-0.521-0.255-0.627c-4.126-1.768-8.521-2.716-13.008-3.151c-1.122-0.101-2.279-0.221-3.602-0.05
		c-1.253,0.147-2.461,0.467-3.597,0.891c-2.282,0.852-4.326,2.048-6.233,3.342c-7.523,5.325-13.46,11.92-19.863,17.487
		c-3.169,2.774-6.583,5.229-9.917,6.749c-1.651,0.779-3.238,1.312-4.66,1.553c-0.354,0.069-0.702,0.115-1.045,0.147
		c-0.343,0.025-0.61,0.021-1.224,0.032c-0.677,0.025-1.625-0.028-2.396-0.142c-3.225-0.357-6.276-1.744-9.148-4.262
		c-2.822-2.531-5.33-5.98-7.554-9.825l-0.023-0.045c-0.075-0.134-0.221-0.228-0.379-0.242c-0.27-0.023-0.512,0.179-0.535,0.451
		c-0.155,1.792-0.085,3.593,0.191,5.391c0.446,2.885,1.448,5.741,3.021,8.434C64.149,98.313,68.809,102.084,74.2,103.388z"/>
</g>
</svg>
