<?xml version="1.0" encoding="utf-8"?>
<!-- Generator: Adobe Illustrator 15.0.2, SVG Export Plug-In . SVG Version: 6.00 Build 0)  -->
<!DOCTYPE svg PUBLIC "-//W3C//DTD SVG 1.1//EN" "http://www.w3.org/Graphics/SVG/1.1/DTD/svg11.dtd">
<svg xmlns="http://www.w3.org/2000/svg" xmlns:xlink="http://www.w3.org/1999/xlink" version="1.1" id="Calque_1" x="0px" y="0px" width="320px" height="24px" viewBox="0 0 320 24" enable-background="new 0 0 320 24" xml:space="preserve">
<g id="Effet_NoPatch" display="none">
</g>
<g>
	<g>
		<path fill="#2aedff" d="M80,20c0,2.2-1.8,4-4,4H4c-2.2,0-4-1.8-4-4V4c0-2.2,1.8-4,4-4h72c2.2,0,4,1.8,4,4V20z"/>
	</g>
</g>
<linearGradient id="SVGID_1_" gradientUnits="userSpaceOnUse" x1="418.96" y1="-255.0996" x2="418.96" y2="-278.0996" gradientTransform="matrix(1 0 0 -1 -378.96 -254.5996)">
	<stop offset="0" style="stop-color:#EEEBE8"/>
	<stop offset="1" style="stop-color:#E8C6B0"/>
</linearGradient>
<path fill="url(#SVGID_1_)" d="M79.5,19.5c0,2.2-1.8,4-4,4h-71c-2.2,0-4-1.8-4-4v-15c0-2.2,1.8-4,4-4h71c2.2,0,4,1.8,4,4V19.5z"/>
<g opacity="0.45">
	<path fill="#FFFFFE" d="M75.5,0.5h-71c-2.2,0-4,1.8-4,4v1c0-2.2,1.8-4,4-4h71c2.2,0,4,1.8,4,4v-1C79.5,2.3,77.7,0.5,75.5,0.5z"/>
</g>
<g opacity="0.1">
	<path fill="#FFFFFE" d="M4.5,23.5h71c2.2,0,4-1.8,4-4v-1c0,2.2-1.8,4-4,4h-71c-2.2,0-4-1.8-4-4v1C0.5,21.7,2.3,23.5,4.5,23.5z"/>
</g>
<g>
	
		<linearGradient id="SVGID_2_" gradientUnits="userSpaceOnUse" x1="418.96" y1="-255.7256" x2="418.96" y2="-277.3641" gradientTransform="matrix(1 0 0 -1 -378.96 -254.5996)">
		<stop offset="0" style="stop-color:#FFFFFE;stop-opacity:0"/>
		<stop offset="1" style="stop-color:#000000;stop-opacity:0.2"/>
	</linearGradient>
	<path fill="url(#SVGID_2_)" d="M75.5,1.5h-71c-2.2,0-4,1.8-4,4v13c0,2.2,1.8,4,4,4h71c2.2,0,4-1.8,4-4v-13   C79.5,3.3,77.7,1.5,75.5,1.5z"/>
</g>
<g id="Effet_NoPatch_1_" display="none">
</g>
<g opacity="0.5">
	<g>
		<g>
			<path fill="#2aedff" d="M320,20c0,2.2-1.8,4-4,4h-72c-2.2,0-4-1.8-4-4V4c0-2.2,1.8-4,4-4h72c2.2,0,4,1.8,4,4V20z"/>
		</g>
	</g>
	
		<linearGradient id="SVGID_3_" gradientUnits="userSpaceOnUse" x1="658.96" y1="-255.0996" x2="658.96" y2="-278.0996" gradientTransform="matrix(1 0 0 -1 -378.96 -254.5996)">
		<stop offset="0" style="stop-color:#EEEBE8"/>
		<stop offset="1" style="stop-color:#E8C6B0"/>
	</linearGradient>
	<path fill="url(#SVGID_3_)" d="M319.5,19.5c0,2.2-1.8,4-4,4h-71c-2.2,0-4-1.8-4-4v-15c0-2.2,1.8-4,4-4h71c2.2,0,4,1.8,4,4V19.5z"/>
	<g opacity="0.45">
		<path fill="#FFFFFE" d="M315.5,0.5h-71c-2.2,0-4,1.8-4,4v1c0-2.2,1.8-4,4-4h71c2.2,0,4,1.8,4,4v-1C319.5,2.3,317.7,0.5,315.5,0.5z    "/>
	</g>
	<g opacity="0.1">
		<path fill="#FFFFFE" d="M244.5,23.5h71c2.2,0,4-1.8,4-4v-1c0,2.2-1.8,4-4,4h-71c-2.2,0-4-1.8-4-4v1    C240.5,21.7,242.3,23.5,244.5,23.5z"/>
	</g>
	<g>
		
			<linearGradient id="SVGID_4_" gradientUnits="userSpaceOnUse" x1="658.96" y1="-255.7256" x2="658.96" y2="-277.3641" gradientTransform="matrix(1 0 0 -1 -378.96 -254.5996)">
			<stop offset="0" style="stop-color:#FFFFFE;stop-opacity:0"/>
			<stop offset="1" style="stop-color:#000000;stop-opacity:0.2"/>
		</linearGradient>
		<path fill="url(#SVGID_4_)" d="M315.5,1.5h-71c-2.2,0-4,1.8-4,4v13c0,2.2,1.8,4,4,4h71c2.2,0,4-1.8,4-4v-13    C319.5,3.3,317.7,1.5,315.5,1.5z"/>
	</g>
</g>
<g>
	<g>
		<path fill="#2aedff" d="M160,20c0,2.2-1.8,4-4,4H84c-2.2,0-4-1.8-4-4V4c0-2.2,1.8-4,4-4h72c2.2,0,4,1.8,4,4V20z"/>
	</g>
</g>
<linearGradient id="SVGID_5_" gradientUnits="userSpaceOnUse" x1="238.0391" y1="375.1006" x2="238.0391" y2="352.1006" gradientTransform="matrix(-1 0 0 1 358.0391 -351.5996)">
	<stop offset="0" style="stop-color:#E8C6B0"/>
	<stop offset="1" style="stop-color:#EEEBE8"/>
</linearGradient>
<path fill="url(#SVGID_5_)" d="M80.5,4.5c0-2.2,1.8-4,4-4h71c2.2,0,4,1.8,4,4v15c0,2.2-1.8,4-4,4h-71c-2.2,0-4-1.8-4-4V4.5z"/>
<g opacity="0.45">
	<path fill="#FFFFFE" d="M155.5,0.5h-71c-2.2,0-4,1.8-4,4v1c0-2.2,1.8-4,4-4h71c2.2,0,4,1.8,4,4v-1C159.5,2.3,157.7,0.5,155.5,0.5z"/>
</g>
<g opacity="0.1">
	<path fill="#FFFFFE" d="M84.5,23.5h71c2.2,0,4-1.8,4-4v-1c0,2.2-1.8,4-4,4h-71c-2.2,0-4-1.8-4-4v1C80.5,21.7,82.3,23.5,84.5,23.5z"/>
</g>
<g>
	
		<linearGradient id="SVGID_6_" gradientUnits="userSpaceOnUse" x1="238.0391" y1="374.4756" x2="238.0391" y2="352.8376" gradientTransform="matrix(-1 0 0 1 358.0391 -351.5996)">
		<stop offset="0" style="stop-color:#FFFFFE;stop-opacity:0"/>
		<stop offset="0.5" style="stop-color:#FFFFFE;stop-opacity:0.1"/>
		<stop offset="1" style="stop-color:#FFFFFE;stop-opacity:0"/>
	</linearGradient>
	<path fill="url(#SVGID_6_)" d="M84.5,22.5h71c2.2,0,4-1.8,4-4v-13c0-2.2-1.8-4-4-4h-71c-2.2,0-4,1.8-4,4v13   C80.5,20.7,82.3,22.5,84.5,22.5z"/>
</g>
<g>
	<g>
		<path fill="#2aedff" d="M240,20c0,2.2-1.8,4-4,4h-72c-2.2,0-4-1.8-4-4V4c0-2.2,1.8-4,4-4h72c2.2,0,4,1.8,4,4V20z"/>
	</g>
</g>
<linearGradient id="SVGID_7_" gradientUnits="userSpaceOnUse" x1="158.0396" y1="375.1006" x2="158.0396" y2="352.1006" gradientTransform="matrix(-1 0 0 1 358.0391 -351.5996)">
	<stop offset="0" style="stop-color:#E8C6B0"/>
	<stop offset="1" style="stop-color:#EEEBE8"/>
</linearGradient>
<path fill="url(#SVGID_7_)" d="M160.5,4.5c0-2.2,1.8-4,4-4h71c2.2,0,4,1.8,4,4v15c0,2.2-1.8,4-4,4h-71c-2.2,0-4-1.8-4-4V4.5z"/>
<g opacity="0.45">
	<path fill="#FFFFFE" d="M235.5,0.5h-71c-2.2,0-4,1.8-4,4v1c0-2.2,1.8-4,4-4h71c2.2,0,4,1.8,4,4v-1C239.5,2.3,237.7,0.5,235.5,0.5z"/>
</g>
<g opacity="0.1">
	<path fill="#FFFFFE" d="M164.5,23.5h71c2.2,0,4-1.8,4-4v-1c0,2.2-1.8,4-4,4h-71c-2.2,0-4-1.8-4-4v1   C160.5,21.7,162.3,23.5,164.5,23.5z"/>
</g>
<g>
	
		<linearGradient id="SVGID_8_" gradientUnits="userSpaceOnUse" x1="158.0396" y1="374.4756" x2="158.0396" y2="352.8376" gradientTransform="matrix(-1 0 0 1 358.0391 -351.5996)">
		<stop offset="0" style="stop-color:#FFFFFE;stop-opacity:0"/>
		<stop offset="0.5" style="stop-color:#FFFFFE;stop-opacity:0.1"/>
		<stop offset="1" style="stop-color:#FFFFFE;stop-opacity:0"/>
	</linearGradient>
	<path fill="url(#SVGID_8_)" d="M164.5,22.5h71c2.2,0,4-1.8,4-4v-13c0-2.2-1.8-4-4-4h-71c-2.2,0-4,1.8-4,4v13   C160.5,20.7,162.3,22.5,164.5,22.5z"/>
</g>
</svg>
