<?xml version="1.0" encoding="utf-8"?>
<!-- Generator: Adobe Illustrator 15.0.2, SVG Export Plug-In . SVG Version: 6.00 Build 0)  -->
<!DOCTYPE svg PUBLIC "-//W3C//DTD SVG 1.1//EN" "http://www.w3.org/Graphics/SVG/1.1/DTD/svg11.dtd">
<svg version="1.1" id="Calque_1" xmlns="http://www.w3.org/2000/svg" xmlns:xlink="http://www.w3.org/1999/xlink" x="0px" y="0px"
	 width="48px" height="36px" viewBox="0 0 48 36" enable-background="new 0 0 48 36" xml:space="preserve">
<path opacity="0.5" fill="#C0C0C0" d="M44,19c0,0.55-0.45,1-1,1H5c-0.55,0-1-0.45-1-1l0,0c0-0.55,0.45-1,1-1h38
	C43.55,18,44,18.45,44,19L44,19z"/>
<path opacity="0.5" fill="#FFFFFF" d="M44,17c0,0.55-0.45,1-1,1H5c-0.55,0-1-0.45-1-1l0,0c0-0.55,0.45-1,1-1h38
	C43.55,16,44,16.45,44,17L44,17z"/>
<path fill="#C6FFFF" d="M44,18c0,0.55-0.45,1-1,1H5c-0.55,0-1-0.45-1-1l0,0c0-0.55,0.45-1,1-1h38C43.55,17,44,17.45,44,18L44,18z"/>
</svg>
