<?xml version="1.0" encoding="utf-8"?>
<!-- Generator: Adobe Illustrator 15.0.2, SVG Export Plug-In . SVG Version: 6.00 Build 0)  -->
<!DOCTYPE svg PUBLIC "-//W3C//DTD SVG 1.1//EN" "http://www.w3.org/Graphics/SVG/1.1/DTD/svg11.dtd">
<svg version="1.1" id="Calque_1" xmlns="http://www.w3.org/2000/svg" xmlns:xlink="http://www.w3.org/1999/xlink" x="0px" y="0px"
	 width="36px" height="48px" viewBox="6 -6 36 48" enable-background="new 6 -6 36 48" xml:space="preserve">
<path opacity="0.5" fill="#C0C0C0" enable-background="new    " d="M25-2c0.55,0,1,0.45,1,1v38c0,0.55-0.45,1-1,1l0,0
	c-0.55,0-1-0.45-1-1V-1C24-1.55,24.45-2,25-2L25-2z"/>
<path opacity="0.5" fill="#FFFFFF" enable-background="new    " d="M23-2c0.55,0,1,0.45,1,1v38c0,0.55-0.45,1-1,1l0,0
	c-0.55,0-1-0.45-1-1V-1C22-1.55,22.45-2,23-2L23-2z"/>
<path fill="#C6FFFF" d="M24-2c0.55,0,1,0.45,1,1v38c0,0.55-0.45,1-1,1l0,0c-0.55,0-1-0.45-1-1V-1C23-1.55,23.45-2,24-2L24-2z"/>
</svg>
