<?xml version="1.0" encoding="utf-8"?>
<!-- Generator: Adobe Illustrator 15.0.2, SVG Export Plug-In . SVG Version: 6.00 Build 0)  -->
<!DOCTYPE svg PUBLIC "-//W3C//DTD SVG 1.1//EN" "http://www.w3.org/Graphics/SVG/1.1/DTD/svg11.dtd">
<svg xmlns="http://www.w3.org/2000/svg" xmlns:xlink="http://www.w3.org/1999/xlink" version="1.1" id="Calque_1" x="0px" y="0px" width="160px" height="24px" viewBox="0 0 160 24" enable-background="new 0 0 160 24" xml:space="preserve">
<g>
	<g>
		<path fill="#2aedff" d="M80,20c0,2.2,0,4,0,4H0c0,0,0-1.8,0-4V4c0-2.2,1.8-4,4-4h72c2.2,0,4,1.8,4,4V20z"/>
	</g>
</g>
<linearGradient id="SVGID_1_" gradientUnits="userSpaceOnUse" x1="797.9199" y1="570.6992" x2="797.9199" y2="594.1992" gradientTransform="matrix(1 0 0 1 -757.9199 -570.1992)">
	<stop offset="0" style="stop-color:#EEEBE8"/>
	<stop offset="1" style="stop-color:#E8C6B0"/>
</linearGradient>
<path fill="url(#SVGID_1_)" d="M79.5,19.5c0-0.268,0,0.232,0,4.5h-79c0,0,0-2.3,0-4.5v-15c0-2.2,1.8-4,4-4h71c2.2,0,4,1.8,4,4V19.5z  "/>
<g opacity="0.45">
	<path fill="#FFFFFE" d="M75.5,0.5h-71c-2.2,0-4,1.8-4,4v1c0-2.2,1.8-4,4-4h71c2.2,0,4,1.8,4,4v-1C79.5,2.3,77.7,0.5,75.5,0.5z"/>
</g>
<g>
	
		<linearGradient id="SVGID_2_" gradientUnits="userSpaceOnUse" x1="797.9199" y1="571.2979" x2="797.9199" y2="594.4819" gradientTransform="matrix(1 0 0 1 -757.9199 -570.1992)">
		<stop offset="0" style="stop-color:#FFFFFE;stop-opacity:0"/>
		<stop offset="1" style="stop-color:#000000;stop-opacity:0.2"/>
	</linearGradient>
	<path fill="url(#SVGID_2_)" d="M75.5,1.5h-71c-2.2,0-4,1.8-4,4v13c0,2.2,0,5.5,0,5.5h79v-5.5v-13C79.5,3.3,77.7,1.5,75.5,1.5z"/>
</g>
<g>
	<g>
		<path fill="#2aedff" d="M160,20c0,2.2,0,4,0,4H80c0,0,0-1.8,0-4V4c0-2.2,1.8-4,4-4h72c2.2,0,4,1.8,4,4V20z"/>
	</g>
</g>
<linearGradient id="SVGID_3_" gradientUnits="userSpaceOnUse" x1="877.9199" y1="570.6992" x2="877.9199" y2="594.1992" gradientTransform="matrix(1 0 0 1 -757.9199 -570.1992)">
	<stop offset="0" style="stop-color:#EEEBE8"/>
	<stop offset="1" style="stop-color:#E8C6B0"/>
</linearGradient>
<path fill="url(#SVGID_3_)" d="M159.5,19.5c0-0.268,0,0.232,0,4.5h-79c0,0,0-2.3,0-4.5v-15c0-2.2,1.8-4,4-4h71c2.2,0,4,1.8,4,4V19.5  z"/>
<g opacity="0.45">
	<path fill="#FFFFFE" d="M155.5,0.5h-71c-2.2,0-4,1.8-4,4v1c0-2.2,1.8-4,4-4h71c2.2,0,4,1.8,4,4v-1C159.5,2.3,157.7,0.5,155.5,0.5z"/>
</g>
<g>
	
		<linearGradient id="SVGID_4_" gradientUnits="userSpaceOnUse" x1="877.9199" y1="571.2979" x2="877.9199" y2="594.4819" gradientTransform="matrix(1 0 0 1 -757.9199 -570.1992)">
		<stop offset="0" style="stop-color:#FFFFFE;stop-opacity:0"/>
		<stop offset="0.5" style="stop-color:#FFFFFE;stop-opacity:0.1"/>
		<stop offset="1" style="stop-color:#FFFFFE;stop-opacity:0"/>
	</linearGradient>
	<path fill="url(#SVGID_4_)" d="M155.5,1.5h-71c-2.2,0-4,1.8-4,4v13c0,2.2,0,5.5,0,5.5h79v-5.5v-13C159.5,3.3,157.7,1.5,155.5,1.5z"/>
</g>
</svg>
