<?xml version="1.0" encoding="utf-8"?>
<!-- Generator: Adobe Illustrator 15.0.2, SVG Export Plug-In . SVG Version: 6.00 Build 0)  -->
<!DOCTYPE svg PUBLIC "-//W3C//DTD SVG 1.1//EN" "http://www.w3.org/Graphics/SVG/1.1/DTD/svg11.dtd">
<svg version="1.1" id="Calque_1" xmlns="http://www.w3.org/2000/svg" xmlns:xlink="http://www.w3.org/1999/xlink" x="0px" y="0px"
	 width="51.707px" height="50.986px" viewBox="0 0 51.707 50.986" enable-background="new 0 0 51.707 50.986" xml:space="preserve">
<g>
	<g>
		<path fill="#EEEBE8" d="M25.905,11.682c-7.791,0-14.107,6.316-14.107,14.109c0,7.793,6.316,14.108,14.107,14.108
			c7.793,0,14.11-6.314,14.11-14.108C40.016,17.999,33.698,11.682,25.905,11.682z M25.905,37.637
			c-6.539,0-11.844-5.305-11.844-11.846c0-6.542,5.305-11.846,11.844-11.846c6.544,0,11.847,5.304,11.847,11.846
			C37.752,32.333,32.449,37.637,25.905,37.637z"/>
		<polygon fill="#EEEBE8" points="26.146,16.233 24.647,16.233 24.133,25.874 24.267,26.881 31.475,33.297 32.615,32.129 
			26.651,25.738 		"/>
	</g>
	<path fill="#EEEBE8" d="M28.153,0.03c-1.611,0.08-3.213,0.267-4.781,0.595c-1.569,0.32-3.109,0.763-4.594,1.336
		c-1.483,0.576-2.921,1.258-4.282,2.065c-1.361,0.805-2.648,1.728-3.838,2.755c-2.388,2.044-4.396,4.512-5.833,7.267
		c-0.717,1.377-1.303,2.817-1.73,4.3s-0.692,3.007-0.807,4.54c-0.027,0.384-0.045,0.768-0.053,1.151
		c-0.009,0.387-0.004,0.758,0.004,1.17l0.018,1.209l0.01,0.596c0.004,0.211,0.01,0.377,0.02,0.572
		c0.076,1.523,0.317,3.035,0.734,4.498c0.832,2.924,2.33,5.648,4.326,7.949c1.992,2.301,4.455,4.199,7.186,5.564
		c2.728,1.373,5.715,2.232,8.761,2.531c3.046,0.311,6.151,0.082,9.109-0.691c2.962-0.762,5.778-2.082,8.249-3.879
		c2.473-1.793,4.583-4.082,6.133-6.709c1.545-2.627,2.508-5.596,2.751-8.648c0.121-1.523,0.078-3.067-0.145-4.586
		c-0.223-1.52-0.625-3.015-1.18-4.457c-1.114-2.885-2.898-5.521-5.139-7.712c-1.114-1.102-2.344-2.096-3.663-2.964
		c-1.317-0.87-2.726-1.607-4.188-2.229c-1.464-0.618-2.992-1.099-4.555-1.44c-1.563-0.353-3.162-0.553-4.774-0.632
		c1.613-0.079,3.237,0.005,4.848,0.226c1.608,0.23,3.201,0.612,4.751,1.14c3.098,1.055,6.005,2.732,8.496,4.919
		c2.479,2.197,4.521,4.932,5.878,8.007c1.359,3.073,1.987,6.487,1.814,9.871c-0.085,1.691-0.367,3.377-0.838,5.01
		c-0.473,1.633-1.14,3.209-1.967,4.693c-1.651,2.977-3.972,5.557-6.682,7.596c-2.714,2.041-5.83,3.525-9.102,4.406
		c-3.277,0.871-6.703,1.133-10.072,0.799c-3.369-0.346-6.683-1.301-9.705-2.848c-3.018-1.551-5.752-3.68-7.936-6.291
		C3.192,39.1,1.55,36.016,0.703,32.711c-0.427-1.65-0.665-3.348-0.699-5.047c-0.005-0.205-0.005-0.443-0.003-0.635l0.008-0.611
		l0.018-1.209c0.006-0.395,0.012-0.829,0.034-1.248c0.021-0.421,0.054-0.842,0.097-1.262c0.345-3.357,1.422-6.626,3.109-9.513
		c1.684-2.891,3.936-5.417,6.55-7.439c2.625-2.009,5.591-3.541,8.717-4.497c1.563-0.479,3.161-0.823,4.772-1.03
		C24.917,0.024,26.54-0.048,28.153,0.03z"/>
</g>
</svg>
