<?xml version="1.0" encoding="utf-8"?>
<!-- Generator: Adobe Illustrator 15.0.2, SVG Export Plug-In . SVG Version: 6.00 Build 0)  -->
<!DOCTYPE svg PUBLIC "-//W3C//DTD SVG 1.1//EN" "http://www.w3.org/Graphics/SVG/1.1/DTD/svg11.dtd">
<svg version="1.1" id="Calque_1" xmlns="http://www.w3.org/2000/svg" xmlns:xlink="http://www.w3.org/1999/xlink" x="0px" y="0px"
	 width="51.707px" height="50.986px" viewBox="0 0 51.707 50.986" enable-background="new 0 0 51.707 50.986" xml:space="preserve">
<g>
	<g>
		<polygon fill="#EEEBE8" points="40.027,28.397 40.027,38.937 11.757,38.937 11.757,28.397 25.892,17.612 		"/>
	</g>
	<g>
		<polygon fill="#EEEBE8" points="7.679,27.786 5.942,25.413 26.017,10.719 45.843,25.417 44.091,27.781 26.005,14.373 		"/>
	</g>
</g>
<path fill="#EEEBE8" d="M28.153,0.031c-1.611,0.079-3.213,0.267-4.781,0.595c-1.568,0.32-3.108,0.763-4.594,1.336
	c-1.482,0.576-2.921,1.257-4.281,2.064c-1.361,0.805-2.649,1.728-3.839,2.756c-2.387,2.044-4.396,4.511-5.833,7.266
	c-0.717,1.377-1.303,2.817-1.73,4.3s-0.692,3.007-0.807,4.54c-0.027,0.383-0.045,0.767-0.053,1.151
	c-0.009,0.387-0.004,0.758,0.004,1.169l0.018,1.209l0.01,0.597c0.004,0.211,0.01,0.378,0.02,0.573
	c0.076,1.523,0.317,3.035,0.734,4.497c0.832,2.925,2.33,5.649,4.326,7.948c1.992,2.303,4.455,4.2,7.186,5.564
	c2.728,1.375,5.715,2.232,8.76,2.532c3.047,0.311,6.152,0.083,9.11-0.69c2.962-0.762,5.778-2.083,8.249-3.879
	c2.473-1.793,4.583-4.083,6.133-6.709c1.545-2.627,2.508-5.597,2.751-8.647c0.121-1.525,0.078-3.068-0.145-4.588
	c-0.223-1.52-0.625-3.015-1.18-4.457c-1.114-2.884-2.898-5.521-5.139-7.712c-1.115-1.103-2.345-2.097-3.663-2.964
	c-1.317-0.87-2.726-1.607-4.188-2.229c-1.464-0.618-2.992-1.099-4.555-1.441c-1.563-0.353-3.162-0.552-4.774-0.632
	c1.613-0.079,3.237,0.005,4.848,0.226c1.608,0.23,3.201,0.612,4.751,1.139c3.098,1.056,6.005,2.732,8.496,4.919
	c2.479,2.198,4.521,4.932,5.878,8.007c1.359,3.072,1.987,6.487,1.814,9.87c-0.085,1.691-0.367,3.378-0.838,5.011
	c-0.473,1.633-1.141,3.208-1.967,4.693c-1.651,2.976-3.973,5.557-6.682,7.596c-2.714,2.04-5.83,3.524-9.102,4.404
	c-3.277,0.872-6.703,1.134-10.072,0.799c-3.369-0.344-6.683-1.299-9.705-2.847c-3.018-1.551-5.752-3.679-7.936-6.291
	c-2.186-2.606-3.828-5.691-4.675-8.996c-0.427-1.649-0.665-3.347-0.698-5.046c-0.006-0.206-0.006-0.443-0.004-0.636l0.008-0.612
	l0.018-1.209c0.006-0.394,0.012-0.829,0.034-1.247C0.081,23.54,0.114,23.12,0.157,22.7c0.345-3.358,1.422-6.626,3.109-9.514
	C4.95,10.295,7.202,7.77,9.817,5.748c2.624-2.009,5.59-3.541,8.717-4.497c1.562-0.479,3.16-0.822,4.771-1.029
	C24.918,0.025,26.541-0.047,28.153,0.031z"/>
</svg>
