<?xml version="1.0" encoding="utf-8"?>
<!-- Generator: Adobe Illustrator 15.0.2, SVG Export Plug-In . SVG Version: 6.00 Build 0)  -->
<!DOCTYPE svg PUBLIC "-//W3C//DTD SVG 1.1//EN" "http://www.w3.org/Graphics/SVG/1.1/DTD/svg11.dtd">
<svg version="1.1" id="Calque_1" xmlns="http://www.w3.org/2000/svg" xmlns:xlink="http://www.w3.org/1999/xlink" x="0px" y="0px"
	 width="51.707px" height="50.986px" viewBox="0 0 51.707 50.986" enable-background="new 0 0 51.707 50.986" xml:space="preserve">
<g>
	<path fill-rule="evenodd" clip-rule="evenodd" fill="#EEEBE8" d="M25.854,23.663c-1.764,0-3.192-1.375-3.192-3.077
		c0-1.701,1.429-3.077,3.192-3.077s3.193,1.376,3.193,3.077C29.047,22.288,27.617,23.663,25.854,23.663z M33.191,16.564
		c-0.988-1.719-2.559-3.041-4.639-3.739c-0.361-0.123-0.732-0.221-1.121-0.291c-0.404-0.07-0.846-0.123-1.305-0.149h-0.273H25.58
		c-0.459,0.026-0.899,0.079-1.305,0.149c-0.389,0.07-0.759,0.168-1.12,0.291c-2.073,0.698-3.651,2.021-4.638,3.739
		c-0.68,1.182-1.129,2.654-1.024,4.454c0.046,0.828,0.266,1.568,0.521,2.239c0.266,0.661,0.574,1.26,0.936,1.833
		c1.376,2.241,3.244,4.233,4.303,6.8c0.538,1.305,1.014,2.663,1.42,4.108c0.396,1.429,0.758,2.945,0.908,4.603h0.273h0.273
		c0.15-1.657,0.512-3.174,0.908-4.603c0.406-1.445,0.881-2.804,1.42-4.108c1.059-2.566,2.928-4.559,4.303-6.8
		c0.363-0.573,0.672-1.172,0.936-1.833c0.256-0.671,0.477-1.411,0.52-2.239C34.318,19.219,33.869,17.746,33.191,16.564z"/>
	<path fill="#EEEBE8" d="M28.154,0.031c-1.612,0.08-3.214,0.267-4.782,0.595c-1.57,0.32-3.109,0.763-4.594,1.336
		c-1.484,0.576-2.922,1.258-4.283,2.065c-1.361,0.805-2.648,1.728-3.838,2.755c-2.387,2.044-4.396,4.512-5.832,7.267
		c-0.717,1.377-1.303,2.817-1.73,4.3s-0.693,3.007-0.807,4.54c-0.027,0.384-0.045,0.768-0.053,1.151
		c-0.01,0.387-0.004,0.758,0.004,1.17l0.018,1.209l0.01,0.595c0.004,0.211,0.01,0.378,0.02,0.573
		c0.076,1.523,0.316,3.035,0.734,4.497c0.832,2.925,2.33,5.649,4.326,7.949c1.992,2.302,4.455,4.2,7.186,5.564
		c2.727,1.374,5.715,2.232,8.76,2.531c3.047,0.312,6.153,0.083,9.11-0.69c2.963-0.762,5.779-2.083,8.25-3.879
		c2.473-1.793,4.582-4.083,6.133-6.709c1.545-2.627,2.508-5.597,2.75-8.648c0.121-1.524,0.078-3.067-0.145-4.586
		c-0.223-1.52-0.625-3.015-1.18-4.457c-1.113-2.885-2.898-5.521-5.139-7.712c-1.113-1.102-2.344-2.096-3.662-2.964
		c-1.318-0.87-2.727-1.607-4.189-2.229c-1.463-0.618-2.992-1.099-4.555-1.44c-1.563-0.353-3.162-0.553-4.774-0.632
		c1.614-0.079,3.237,0.005,4.849,0.226c1.607,0.23,3.201,0.612,4.75,1.14c3.098,1.055,6.006,2.732,8.496,4.919
		c2.48,2.197,4.521,4.932,5.879,8.007c1.359,3.073,1.986,6.487,1.814,9.87c-0.086,1.691-0.367,3.378-0.838,5.011
		c-0.473,1.633-1.141,3.208-1.967,4.693c-1.652,2.976-3.973,5.557-6.682,7.596c-2.715,2.04-5.83,3.524-9.102,4.405
		c-3.277,0.871-6.704,1.134-10.073,0.799c-3.369-0.345-6.684-1.3-9.705-2.848c-3.018-1.551-5.752-3.679-7.936-6.291
		c-2.186-2.606-3.828-5.69-4.676-8.996c-0.426-1.649-0.664-3.347-0.699-5.046c-0.004-0.206-0.004-0.443-0.002-0.636l0.008-0.611
		l0.018-1.209c0.006-0.395,0.012-0.829,0.033-1.248c0.021-0.421,0.055-0.842,0.098-1.262c0.344-3.357,1.422-6.626,3.109-9.513
		C4.95,10.295,7.202,7.77,9.815,5.748c2.625-2.009,5.592-3.541,8.717-4.497c1.563-0.479,3.162-0.823,4.773-1.03
		C24.917,0.024,26.54-0.047,28.154,0.031z"/>
</g>
</svg>
