<?xml version="1.0" encoding="utf-8"?>
<!-- Generator: Adobe Illustrator 15.0.2, SVG Export Plug-In . SVG Version: 6.00 Build 0)  -->
<!DOCTYPE svg PUBLIC "-//W3C//DTD SVG 1.1//EN" "http://www.w3.org/Graphics/SVG/1.1/DTD/svg11.dtd">
<svg version="1.1" id="Calque_1" xmlns="http://www.w3.org/2000/svg" xmlns:xlink="http://www.w3.org/1999/xlink" x="0px" y="0px"
	 width="51.707px" height="50.986px" viewBox="0 0 51.707 50.986" enable-background="new 0 0 51.707 50.986" xml:space="preserve">
<g>
	<g>
		<g>
			<polygon fill-rule="evenodd" clip-rule="evenodd" fill="#EEEBE8" points="11.784,20.538 11.784,35.298 40.001,35.298 
				40.001,20.538 25.892,27.553 			"/>
			<polygon fill-rule="evenodd" clip-rule="evenodd" fill="#EEEBE8" points="11.784,14.357 11.784,18.285 25.892,25.298 
				40.001,18.285 40.001,14.357 			"/>
		</g>
	</g>
	<path fill="#EEEBE8" d="M28.153,0.031c-1.611,0.079-3.213,0.266-4.781,0.595c-1.568,0.319-3.107,0.763-4.593,1.336
		c-1.483,0.576-2.922,1.257-4.282,2.064c-1.361,0.806-2.648,1.728-3.838,2.756c-2.388,2.044-4.396,4.512-5.833,7.266
		c-0.717,1.377-1.303,2.817-1.73,4.3c-0.428,1.482-0.692,3.007-0.807,4.54c-0.027,0.383-0.045,0.767-0.053,1.15
		c-0.009,0.388-0.004,0.758,0.003,1.17l0.019,1.209l0.01,0.597c0.004,0.21,0.01,0.376,0.021,0.573
		c0.075,1.523,0.316,3.035,0.733,4.497c0.832,2.925,2.33,5.649,4.325,7.949c1.993,2.302,4.455,4.2,7.187,5.564
		c2.728,1.375,5.714,2.233,8.76,2.532c3.046,0.311,6.151,0.083,9.11-0.69c2.962-0.761,5.778-2.083,8.248-3.879
		c2.473-1.793,4.584-4.083,6.133-6.709c1.546-2.626,2.508-5.596,2.752-8.648c0.12-1.525,0.077-3.067-0.145-4.587
		c-0.223-1.52-0.626-3.015-1.18-4.457c-1.115-2.885-2.899-5.521-5.14-7.712c-1.114-1.102-2.344-2.096-3.662-2.964
		c-1.317-0.87-2.726-1.607-4.188-2.229c-1.465-0.618-2.992-1.099-4.556-1.441C29.104,4.46,27.505,4.26,25.893,4.18
		c1.612-0.079,3.237,0.005,4.847,0.226c1.609,0.23,3.201,0.612,4.751,1.139c3.099,1.056,6.005,2.732,8.496,4.919
		c2.479,2.198,4.521,4.932,5.878,8.007c1.359,3.072,1.986,6.487,1.814,9.869c-0.084,1.692-0.367,3.378-0.838,5.011
		c-0.473,1.633-1.14,3.209-1.967,4.694c-1.65,2.976-3.972,5.556-6.682,7.595c-2.713,2.041-5.83,3.525-9.102,4.405
		c-3.277,0.872-6.703,1.135-10.072,0.8c-3.367-0.345-6.682-1.3-9.704-2.848c-3.018-1.55-5.752-3.678-7.937-6.292
		c-2.185-2.605-3.827-5.691-4.674-8.996c-0.427-1.649-0.664-3.347-0.699-5.045C0,27.458-0.001,27.222,0.001,27.03l0.008-0.612
		l0.018-1.209c0.005-0.394,0.012-0.829,0.034-1.248c0.021-0.421,0.053-0.842,0.096-1.262c0.345-3.357,1.422-6.626,3.109-9.513
		c1.685-2.891,3.937-5.417,6.551-7.438c2.625-2.009,5.591-3.541,8.717-4.498c1.563-0.479,3.16-0.822,4.771-1.029
		C24.918,0.024,26.541-0.048,28.153,0.031z"/>
</g>
</svg>
