<?xml version="1.0" encoding="utf-8"?>
<!-- Generator: Adobe Illustrator 15.0.2, SVG Export Plug-In . SVG Version: 6.00 Build 0)  -->
<!DOCTYPE svg PUBLIC "-//W3C//DTD SVG 1.1//EN" "http://www.w3.org/Graphics/SVG/1.1/DTD/svg11.dtd">
<svg version="1.1" id="Calque_1" xmlns="http://www.w3.org/2000/svg" xmlns:xlink="http://www.w3.org/1999/xlink" x="0px" y="0px"
	 width="51.707px" height="50.986px" viewBox="0 0 51.707 50.986" enable-background="new 0 0 51.707 50.986" xml:space="preserve">
<g>
	<path fill="#EEEBE8" d="M39.97,33.524c0.31-0.408,0.284-0.988-0.089-1.363c-0.043-0.042-0.092-0.079-0.141-0.113l-0.002-0.008
		l-6.061-4.332l-0.008,0.005c-0.405-0.299-0.975-0.269-1.345,0.101c-0.034,0.035-0.065,0.076-0.096,0.118v0.001
		c-0.02,0.024-0.037,0.047-0.053,0.075c-0.406,0.581-0.402,0.655-0.731,1.162c-0.467,0.73-1.005,1.86-1.538,3.145
		c-1.703-0.264-4.238-1.741-7.01-4.515c-2.774-2.771-4.253-5.307-4.512-7.007c1.282-0.534,2.41-1.073,3.146-1.538
		c0.503-0.33,0.576-0.326,1.161-0.731c0.024-0.018,0.049-0.034,0.074-0.052c0,0,0.003,0,0.003-0.002
		c0.038-0.029,0.081-0.059,0.116-0.095c0.368-0.367,0.398-0.937,0.102-1.345v-0.007l-4.329-6.061h-0.01
		c-0.036-0.049-0.071-0.097-0.114-0.143c-0.373-0.369-0.955-0.396-1.362-0.085c-2.902,1.99-5.528,4.175-5.185,6.762
		c0.369,2.776,3.677,8.889,8.002,13.212c4.327,4.324,10.443,7.634,13.217,7.998C35.793,39.053,37.979,36.428,39.97,33.524"/>
	<path fill="#EEEBE8" d="M28.153,0.03c-1.611,0.08-3.213,0.267-4.781,0.595c-1.569,0.32-3.109,0.763-4.594,1.336
		c-1.483,0.576-2.921,1.258-4.282,2.065c-1.361,0.805-2.648,1.728-3.838,2.755c-2.388,2.044-4.396,4.512-5.833,7.267
		c-0.717,1.377-1.303,2.817-1.73,4.3s-0.692,3.007-0.807,4.54c-0.027,0.384-0.045,0.768-0.053,1.151
		c-0.009,0.387-0.004,0.758,0.004,1.17l0.018,1.209l0.01,0.596c0.004,0.211,0.01,0.378,0.02,0.573
		c0.076,1.523,0.317,3.035,0.734,4.497c0.832,2.925,2.33,5.649,4.326,7.949c1.992,2.302,4.455,4.2,7.186,5.564
		c2.728,1.374,5.715,2.232,8.761,2.531c3.046,0.312,6.151,0.083,9.109-0.69c2.962-0.762,5.778-2.083,8.249-3.879
		c2.473-1.793,4.583-4.083,6.133-6.709c1.545-2.627,2.508-5.597,2.751-8.648c0.121-1.524,0.078-3.067-0.145-4.587
		c-0.223-1.52-0.625-3.015-1.18-4.457c-1.114-2.885-2.898-5.521-5.139-7.712c-1.114-1.102-2.344-2.096-3.663-2.964
		c-1.317-0.87-2.726-1.607-4.188-2.229c-1.464-0.618-2.992-1.099-4.555-1.44c-1.563-0.353-3.162-0.553-4.774-0.632
		c1.613-0.079,3.237,0.005,4.848,0.226c1.608,0.23,3.201,0.612,4.751,1.14c3.098,1.055,6.005,2.732,8.496,4.919
		c2.479,2.197,4.521,4.932,5.878,8.007c1.359,3.073,1.987,6.487,1.814,9.87c-0.085,1.691-0.367,3.378-0.838,5.011
		c-0.473,1.633-1.14,3.208-1.967,4.693c-1.651,2.976-3.972,5.557-6.682,7.596c-2.714,2.04-5.83,3.524-9.102,4.405
		c-3.277,0.871-6.703,1.134-10.072,0.799c-3.369-0.345-6.683-1.3-9.705-2.848c-3.018-1.551-5.752-3.679-7.936-6.291
		c-2.186-2.606-3.828-5.69-4.675-8.996c-0.427-1.649-0.665-3.347-0.699-5.046c-0.005-0.206-0.005-0.443-0.003-0.636l0.008-0.611
		l0.018-1.209c0.006-0.395,0.012-0.829,0.034-1.248c0.021-0.421,0.054-0.842,0.097-1.262c0.345-3.357,1.422-6.626,3.109-9.513
		c1.684-2.891,3.936-5.417,6.55-7.439c2.625-2.009,5.591-3.541,8.717-4.497c1.563-0.479,3.161-0.823,4.772-1.03
		C24.917,0.024,26.54-0.048,28.153,0.03z"/>
</g>
</svg>
