<?xml version="1.0" encoding="utf-8"?>
<!-- Generator: Adobe Illustrator 15.0.2, SVG Export Plug-In . SVG Version: 6.00 Build 0)  -->
<!DOCTYPE svg PUBLIC "-//W3C//DTD SVG 1.1//EN" "http://www.w3.org/Graphics/SVG/1.1/DTD/svg11.dtd">
<svg version="1.1" id="Calque_1" xmlns="http://www.w3.org/2000/svg" xmlns:xlink="http://www.w3.org/1999/xlink" x="0px" y="0px"
	 width="222px" height="222px" viewBox="0 0 222 222" enable-background="new 0 0 222 222" xml:space="preserve">
<path fill="#EEEBE8" d="M222,111c0,4.406-7.719,8.307-8.229,12.572c-0.52,4.361,6.049,9.996,5.025,14.184
	c-1.039,4.258-9.458,6.18-10.982,10.215c-1.541,4.09,3.486,11.154,1.484,14.987c-2.016,3.862-10.648,3.69-13.102,7.26
	c-2.463,3.584,0.744,11.656-2.115,14.908c-2.871,3.257-11.209,1.017-14.439,3.901c-3.23,2.884-2.025,11.49-5.584,13.97
	c-3.547,2.468-11.113-1.705-14.949,0.325c-3.805,2.018-4.683,10.668-8.744,12.218c-4.012,1.532-10.358-4.353-14.582-3.304
	c-4.158,1.025-7.076,9.212-11.408,9.736c-4.238,0.514-9.001-6.73-13.379-6.73c-4.377,0-9.14,7.24-13.376,6.73
	c-4.334-0.522-7.248-8.711-11.407-9.736c-4.227-1.047-10.575,4.836-14.589,3.304c-4.059-1.554-4.934-10.203-8.741-12.218
	c-3.835-2.03-11.405,2.143-14.949-0.325c-3.559-2.479-2.353-11.086-5.582-13.97c-3.232-2.889-11.573-0.65-14.441-3.905
	c-2.862-3.252,0.344-11.32-2.115-14.908c-2.452-3.567-11.083-3.396-13.101-7.259c-2-3.834,3.026-10.898,1.487-14.984
	c-1.521-4.041-9.943-5.963-10.981-10.215c-1.025-4.188,5.548-9.82,5.024-14.184C7.719,119.303,0,115.407,0,111
	c0-4.408,7.719-8.304,8.229-12.572c0.521-4.363-6.049-9.996-5.027-14.183c1.037-4.259,9.458-6.181,10.983-10.22
	c1.54-4.086-3.491-11.151-1.488-14.984c2.018-3.862,10.649-3.69,13.101-7.259c2.461-3.585-0.743-11.652,2.117-14.905
	c2.868-3.257,11.208-1.021,14.441-3.906c3.229-2.883,2.023-11.489,5.581-13.972c3.544-2.468,11.114,1.709,14.95-0.321
	c3.808-2.019,4.679-10.668,8.741-12.218c4.012-1.534,10.36,4.35,14.585,3.304c4.159-1.026,7.073-9.212,11.407-9.737
	c4.236-0.514,9,6.731,13.378,6.731c4.38,0,9.143-7.245,13.379-6.731c4.333,0.525,7.248,8.711,11.406,9.737
	c4.227,1.046,10.576-4.836,14.589-3.303c4.063,1.551,4.937,10.2,8.741,12.217c3.838,2.034,11.406-2.143,14.951,0.325
	c3.561,2.479,2.351,11.089,5.58,13.968c3.232,2.888,11.576,0.651,14.44,3.906c2.864,3.253-0.345,11.324,2.117,14.907
	c2.452,3.568,11.085,3.397,13.101,7.261c2.006,3.833-3.025,10.895-1.484,14.98c1.521,4.043,9.941,5.961,10.981,10.22
	c1.021,4.187-5.548,9.819-5.024,14.183C214.281,102.696,222,106.594,222,111z"/>
<g>
	<g>
		<path fill="#FFFFFF" d="M110.998,202.997c-50.374,0-91.355-41.271-91.355-91.997c0-50.726,40.981-91.997,91.355-91.997
			s91.359,41.27,91.359,91.997C202.357,161.727,161.372,202.997,110.998,202.997z M110.998,20.889
			c-49.343,0-89.484,40.425-89.484,90.113c0,49.688,40.141,90.109,89.484,90.109c49.348,0,89.486-40.426,89.486-90.109
			C200.484,61.313,160.346,20.889,110.998,20.889z"/>
	</g>
</g>
<g>
	<g>
		<path fill="#FFFFFF" d="M110.998,198.604c-47.968,0-86.992-39.302-86.992-87.602c0-48.304,39.024-87.603,86.992-87.603
			c47.968,0,86.996,39.299,86.996,87.601S158.966,198.604,110.998,198.604z M110.998,25.27c-46.941,0-85.131,38.458-85.131,85.73
			c0,47.27,38.189,85.729,85.131,85.729c46.941,0,85.137-38.455,85.137-85.729C196.135,63.727,157.939,25.27,110.998,25.27z"/>
	</g>
</g>
<g>
	<polygon fill="#FFFFFF" points="61,135.27 161,135.27 154.115,139.236 68.77,139.236 	"/>
	<polygon fill="#FFFFFF" points="78.919,141.664 143.08,141.664 141.341,143.396 80.871,143.396 	"/>
	<path fill="#FFFFFF" d="M115.582,103.605c0.936,0.238,1.867,0.549,2.79,0.885c0.905,0.315,1.819,0.691,2.726,1.073
		c1.778,0.768,3.534,1.641,5.25,2.618c3.399,1.958,6.602,4.329,9.4,7.206c1.374,1.43,2.661,2.983,3.814,4.659
		c1.129,1.677,2.121,3.472,2.932,5.353c0.801,1.861,1.441,3.822,1.874,5.844c0.458,1.996,0.704,4.048,0.786,6.103h-4.143
		c0.174-3.641-0.275-7.346-1.439-10.847c-1.146-3.502-3.01-6.797-5.381-9.727c-2.381-2.938-5.265-5.521-8.397-7.713
		c-1.575-1.109-3.222-2.11-4.933-3.032c-0.844-0.45-1.709-0.896-2.586-1.309C117.396,104.308,116.504,103.923,115.582,103.605z"/>
	<path fill="#FFFFFF" d="M151.283,125.268c-0.492-1.037-1.075-2.045-1.661-3.035c-0.597-0.987-1.241-1.947-1.901-2.885
		c-1.322-1.881-2.785-3.681-4.349-5.367c-3.128-3.353-6.737-6.282-10.699-8.569c-3.95-2.274-8.29-3.892-12.754-4.732
		c-2.231-0.438-4.504-0.669-6.78-0.754c-2.28-0.063-4.533,0.027-6.777,0.322c-2.247,0.292-4.459,0.786-6.592,1.492
		c-2.133,0.705-4.198,1.597-6.146,2.708c-3.905,2.205-7.346,5.185-10.205,8.646c-2.839,3.438-5.153,7.354-6.88,11.493
		c-0.859,2.071-1.592,4.189-2.125,6.346c-0.278,1.078-0.5,2.166-0.669,3.247c-0.165,1.078-0.27,2.16-0.251,3.166H70.17
		c0.027-1.295,0.18-2.502,0.4-3.708c0.224-1.201,0.503-2.371,0.83-3.52c0.658-2.295,1.484-4.523,2.467-6.693
		c1.97-4.33,4.527-8.379,7.67-11.964c3.136-3.559,6.872-6.627,11.087-8.83c2.115-1.115,4.319-2.017,6.599-2.683
		c2.256-0.668,4.6-1.108,6.943-1.349c2.344-0.244,4.695-0.253,7.031-0.125c2.344,0.154,4.688,0.467,6.964,0.971
		c4.571,1.021,8.963,2.815,12.944,5.254c3.965,2.445,7.521,5.529,10.561,9.006c1.543,1.739,2.938,3.596,4.219,5.526
		c0.653,0.961,1.25,1.947,1.83,2.951C150.277,123.182,150.807,124.216,151.283,125.268z"/>
	<path fill="#FFFFFF" d="M92.523,113.316c-0.714,0.855-1.341,1.735-1.944,2.66c-0.601,0.928-1.147,1.863-1.665,2.822
		c-1.011,1.92-1.883,3.936-2.546,5.983c-0.663,2.05-1.141,4.134-1.41,6.253c-0.276,2.097-0.352,4.23-0.203,6.309h-3.337
		c0.139-2.299,0.51-4.59,1.086-6.789c0.573-2.225,1.36-4.363,2.319-6.396c0.959-2.035,2.104-3.973,3.375-5.788
		c0.657-0.912,1.336-1.794,2.049-2.634C90.963,114.881,91.713,114.073,92.523,113.316z"/>
	<path fill="#FFFFFF" d="M105.721,127.354c-0.123-0.597-0.25-1.188-0.43-1.772c-0.149-0.585-0.321-1.162-0.505-1.742
		c-0.378-1.155-0.807-2.271-1.281-3.374c-0.953-2.189-2.103-4.299-3.423-6.258c-0.657-0.982-1.378-1.916-2.122-2.83
		c-0.775-0.909-1.56-1.777-2.403-2.584c-0.831-0.831-1.705-1.618-2.634-2.339c-0.452-0.383-0.918-0.735-1.405-1.069l-0.736-0.55
		c-0.244-0.185-0.509-0.373-0.747-0.566c-0.991-0.781-1.936-1.618-2.821-2.546c-0.877-0.931-1.705-1.918-2.408-3.015
		c-0.698-1.097-1.292-2.273-1.686-3.519c-0.195-0.633-0.371-1.26-0.482-1.913c-0.104-0.65-0.16-1.299-0.172-1.953
		c-0.021-1.313,0.173-2.624,0.556-3.847c0.363-1.231,0.89-2.403,1.558-3.481c0.648-1.07,1.413-2.055,2.255-2.961
		c0.864-0.909,1.785-1.727,2.777-2.43c-0.827,0.898-1.58,1.855-2.262,2.847c-0.676,0.981-1.279,2.017-1.762,3.09
		c-0.485,1.07-0.849,2.188-1.077,3.306c-0.11,0.558-0.183,1.133-0.219,1.704c-0.022,0.561-0.009,1.12,0.021,1.674
		c0.059,0.578,0.145,1.124,0.271,1.661c0.122,0.556,0.294,1.079,0.489,1.61c0.404,1.036,0.953,2.039,1.593,2.976
		c0.652,0.934,1.394,1.814,2.215,2.64c0.795,0.813,1.672,1.579,2.605,2.308c0.228,0.179,0.456,0.354,0.7,0.525l0.717,0.546
		c0.51,0.371,1.009,0.754,1.49,1.158c0.959,0.816,1.898,1.661,2.759,2.583c1.727,1.812,3.252,3.828,4.496,5.997
		c1.241,2.172,2.236,4.465,2.942,6.845c0.339,1.19,0.618,2.399,0.817,3.606C105.605,124.904,105.743,126.122,105.721,127.354z"/>
	<path fill="#FFFFFF" d="M102.939,110.01c-0.142-0.359-0.289-0.718-0.435-1.082c-0.148-0.348-0.305-0.714-0.459-1.054
		c-0.332-0.7-0.666-1.395-1.034-2.065c-0.705-1.348-1.49-2.667-2.359-3.928c-0.843-1.261-1.764-2.461-2.736-3.628
		c-0.489-0.586-0.981-1.165-1.49-1.709c-0.272-0.272-0.525-0.544-0.784-0.83l-0.413-0.401c-0.148-0.167-0.277-0.303-0.425-0.472
		c-0.523-0.606-1.005-1.291-1.392-2.056c-0.384-0.743-0.676-1.563-0.792-2.406c-0.135-0.836-0.113-1.699,0.035-2.533
		c0.166-0.819,0.442-1.603,0.789-2.349c0.725-1.47,1.725-2.732,2.808-3.851c1.097-1.136,2.289-2.144,3.552-3.042
		c-1.026,1.155-2.078,2.293-2.975,3.53c-0.923,1.202-1.749,2.487-2.28,3.848c-0.263,0.677-0.457,1.378-0.55,2.081
		c-0.091,0.704-0.091,1.4,0.038,2.087c0.136,0.679,0.359,1.333,0.703,1.954c0.336,0.614,0.739,1.197,1.218,1.757
		c0.113,0.122,0.244,0.272,0.37,0.392l0.401,0.409c0.268,0.281,0.534,0.567,0.791,0.862c0.529,0.589,1.047,1.192,1.526,1.825
		c0.966,1.235,1.846,2.555,2.625,3.918c0.777,1.364,1.458,2.77,2.011,4.231c0.283,0.747,0.542,1.474,0.756,2.23
		C102.65,108.486,102.835,109.24,102.939,110.01z"/>
	<path fill="#FFFFFF" d="M104.202,94.308h12.901c0,0,0-3.766-6.445-3.766C104.202,90.542,104.202,94.308,104.202,94.308z"/>
	<line fill="#FFFFFF" x1="111" y1="99.148" x2="111" y2="94.308"/>
</g>
</svg>
