<?xml version="1.0" encoding="utf-8"?>
<!-- Generator: Adobe Illustrator 15.0.2, SVG Export Plug-In . SVG Version: 6.00 Build 0)  -->
<!DOCTYPE svg PUBLIC "-//W3C//DTD SVG 1.1//EN" "http://www.w3.org/Graphics/SVG/1.1/DTD/svg11.dtd">
<svg version="1.1" id="Calque_1" xmlns="http://www.w3.org/2000/svg" xmlns:xlink="http://www.w3.org/1999/xlink" x="0px" y="0px"
	 width="222px" height="222px" viewBox="0 0 222 222" enable-background="new 0 0 222 222" xml:space="preserve">
<path fill="#EEEBE8" d="M222,111c0,4.406-7.719,8.307-8.229,12.572c-0.52,4.361,6.049,9.996,5.025,14.184
	c-1.039,4.258-9.458,6.18-10.982,10.215c-1.541,4.09,3.486,11.154,1.484,14.987c-2.016,3.862-10.648,3.69-13.102,7.26
	c-2.463,3.584,0.744,11.656-2.115,14.908c-2.871,3.257-11.209,1.017-14.439,3.901c-3.23,2.884-2.025,11.49-5.584,13.97
	c-3.547,2.468-11.113-1.705-14.949,0.325c-3.805,2.018-4.683,10.668-8.744,12.218c-4.012,1.532-10.358-4.353-14.582-3.304
	c-4.158,1.025-7.076,9.212-11.408,9.736c-4.238,0.514-9.001-6.73-13.379-6.73c-4.377,0-9.14,7.24-13.376,6.73
	c-4.334-0.522-7.248-8.711-11.407-9.736c-4.227-1.047-10.575,4.836-14.589,3.304c-4.059-1.554-4.934-10.203-8.741-12.218
	c-3.835-2.03-11.405,2.143-14.949-0.325c-3.559-2.479-2.353-11.086-5.582-13.97c-3.232-2.889-11.573-0.65-14.441-3.905
	c-2.862-3.252,0.345-11.32-2.115-14.908c-2.451-3.567-11.083-3.396-13.101-7.259c-2-3.834,3.026-10.898,1.487-14.984
	c-1.521-4.041-9.942-5.963-10.98-10.215c-1.025-4.188,5.548-9.82,5.023-14.184C7.719,119.303,0,115.407,0,111
	c0-4.408,7.719-8.304,8.229-12.572c0.521-4.363-6.049-9.996-5.026-14.183c1.037-4.259,9.458-6.181,10.982-10.22
	c1.54-4.086-3.49-11.151-1.488-14.984c2.018-3.862,10.649-3.69,13.101-7.259c2.462-3.585-0.743-11.652,2.117-14.905
	c2.868-3.257,11.208-1.021,14.441-3.906c3.229-2.883,2.023-11.489,5.581-13.972c3.544-2.468,11.114,1.709,14.95-0.321
	c3.808-2.019,4.679-10.668,8.74-12.218c4.013-1.534,10.361,4.35,14.586,3.304c4.159-1.026,7.073-9.212,11.407-9.737
	c4.236-0.514,9,6.731,13.378,6.731c4.38,0,9.143-7.245,13.379-6.731c4.333,0.525,7.248,8.711,11.406,9.737
	c4.227,1.046,10.576-4.836,14.589-3.303c4.063,1.551,4.937,10.2,8.741,12.217c3.838,2.034,11.406-2.143,14.951,0.325
	c3.561,2.479,2.351,11.089,5.58,13.968c3.232,2.888,11.576,0.651,14.44,3.906c2.864,3.253-0.345,11.324,2.117,14.907
	c2.452,3.568,11.085,3.397,13.101,7.261c2.006,3.833-3.025,10.895-1.484,14.98c1.521,4.043,9.941,5.961,10.981,10.22
	c1.021,4.187-5.548,9.819-5.024,14.183C214.281,102.696,222,106.594,222,111z"/>
<g>
	<g>
		<path fill="#FFFFFF" d="M110.998,202.997c-50.374,0-91.355-41.271-91.355-91.997c0-50.726,40.981-91.997,91.355-91.997
			s91.359,41.27,91.359,91.997C202.357,161.727,161.372,202.997,110.998,202.997z M110.998,20.889
			c-49.343,0-89.483,40.425-89.483,90.113c0,49.688,40.141,90.109,89.483,90.109c49.348,0,89.486-40.426,89.486-90.109
			C200.484,61.313,160.346,20.889,110.998,20.889z"/>
	</g>
</g>
<g>
	<g>
		<path fill="#FFFFFF" d="M110.998,198.604c-47.968,0-86.992-39.302-86.992-87.602c0-48.304,39.024-87.603,86.992-87.603
			c47.968,0,86.996,39.299,86.996,87.601S158.966,198.604,110.998,198.604z M110.998,25.27c-46.941,0-85.131,38.458-85.131,85.73
			c0,47.27,38.189,85.729,85.131,85.729c46.941,0,85.137-38.455,85.137-85.729C196.135,63.727,157.939,25.27,110.998,25.27z"/>
	</g>
</g>
<g>
	<g>
		<path fill="#FFFFFF" d="M115.963,146.245c3.43,0.001,6.861,0.155,10.284,0.606c1.711,0.233,3.42,0.53,5.11,1.045
			c0.843,0.266,1.688,0.567,2.506,1.043c0.406,0.242,0.812,0.523,1.179,0.925c0.181,0.2,0.353,0.435,0.487,0.713
			c0.135,0.274,0.226,0.604,0.24,0.94c0.014,0.336-0.049,0.678-0.162,0.975c-0.111,0.299-0.266,0.559-0.433,0.787
			c-0.339,0.457-0.728,0.801-1.12,1.102c-0.791,0.596-1.619,1.025-2.457,1.398c-1.681,0.734-3.398,1.231-5.133,1.625
			c-3.47,0.77-6.986,1.088-10.507,1.096c-3.507-0.006-7.033-0.318-10.5-1.089c-0.868-0.188-1.729-0.419-2.587-0.683
			c-0.857-0.262-1.706-0.571-2.546-0.94c-0.84-0.371-1.668-0.806-2.461-1.397c-0.395-0.303-0.782-0.646-1.122-1.104
			c-0.334-0.456-0.628-1.059-0.595-1.787l0.008-0.092c0.005-0.049,0.011-0.104,0.017-0.141c0.013-0.084,0.03-0.164,0.051-0.244
			c0.041-0.16,0.098-0.312,0.165-0.448c0.135-0.28,0.308-0.513,0.489-0.716c0.366-0.4,0.772-0.684,1.181-0.924
			c0.818-0.479,1.664-0.781,2.507-1.043c1.692-0.513,3.402-0.812,5.113-1.045C109.102,146.4,112.532,146.246,115.963,146.245z
			 M115.963,146.245c-3.428,0.008-6.868,0.319-10.203,1.065c-1.662,0.377-3.306,0.864-4.834,1.545
			c-0.759,0.34-1.491,0.738-2.103,1.215c-0.303,0.238-0.57,0.5-0.747,0.766c-0.089,0.13-0.152,0.26-0.186,0.376
			c-0.018,0.058-0.026,0.111-0.029,0.163c-0.002,0.023-0.003,0.048-0.002,0.073c0,0.015,0.004,0.015,0.004,0.02l0.004,0.07
			c0.028,0.134,0.135,0.351,0.344,0.553c0.205,0.207,0.49,0.407,0.807,0.584c0.636,0.357,1.385,0.626,2.149,0.86
			c1.539,0.457,3.173,0.742,4.813,0.963c3.291,0.426,6.635,0.579,9.985,0.583c3.338-0.001,6.692-0.151,9.98-0.575
			c1.642-0.219,3.275-0.504,4.814-0.961c0.766-0.232,1.516-0.504,2.152-0.861c0.316-0.178,0.604-0.379,0.809-0.589
			c0.211-0.211,0.317-0.399,0.346-0.577c0.033-0.178-0.029-0.42-0.209-0.688c-0.18-0.266-0.449-0.525-0.752-0.764
			c-0.61-0.478-1.347-0.879-2.104-1.215c-1.528-0.681-3.173-1.164-4.836-1.541C122.829,146.563,119.391,146.253,115.963,146.245z"/>
		<path fill="#FFFFFF" d="M139.813,99.093c2.16,0.455,4.31,1.003,6.377,1.808c1.033,0.406,2.047,0.875,2.979,1.51
			c0.462,0.319,0.904,0.682,1.271,1.132c0.36,0.445,0.646,1.011,0.66,1.629c0.021,0.619-0.238,1.209-0.586,1.677
			c-0.353,0.474-0.785,0.858-1.242,1.199c-0.916,0.677-1.926,1.187-2.951,1.633c-2.061,0.884-4.205,1.508-6.363,2.04
			c-4.324,1.043-8.729,1.68-13.146,2.12c-4.416,0.435-8.855,0.647-13.297,0.681c-4.442,0.029-8.89-0.121-13.331-0.518
			c-2.221-0.197-4.438-0.457-6.651-0.803c-2.213-0.346-4.422-0.775-6.618-1.359c-1.099-0.294-2.193-0.629-3.283-1.036
			c-1.087-0.413-2.172-0.884-3.238-1.553c-0.53-0.34-1.06-0.728-1.56-1.245c-0.25-0.262-0.491-0.559-0.702-0.908
			c-0.211-0.351-0.389-0.764-0.484-1.223c-0.024-0.113-0.042-0.229-0.054-0.347c-0.005-0.06-0.013-0.119-0.014-0.179l-0.004-0.09
			l-0.001-0.045v-0.063l0.001-0.065l0.006-0.131c0.007-0.069,0.014-0.139,0.023-0.205c0.021-0.135,0.049-0.264,0.083-0.388
			c0.142-0.494,0.367-0.882,0.599-1.206c0.472-0.645,0.983-1.081,1.492-1.475c1.024-0.771,2.07-1.329,3.126-1.838
			c1.058-0.503,2.126-0.934,3.202-1.326c2.155-0.777,4.342-1.397,6.558-1.902l0.711,3.347c-2.103,0.415-4.189,0.942-6.208,1.607
			c-1.01,0.334-2.003,0.704-2.953,1.122c-0.945,0.419-1.865,0.891-2.622,1.432c-0.374,0.265-0.705,0.559-0.895,0.805
			c-0.094,0.12-0.144,0.221-0.157,0.259c-0.004,0.008-0.006,0.014-0.007,0.016c-0.002,0.002-0.002,0-0.002,0
			c0-0.008,0.002-0.02,0-0.028c0-0.011,0,0.007,0,0.013l-0.001,0.025c0,0.037,0-0.018,0-0.012v0.006v0.015
			c-0.003,0.009,0,0.021,0,0.03c0,0.019,0.001,0.038,0.005,0.06c0.018,0.163,0.149,0.437,0.409,0.725
			c0.257,0.287,0.608,0.576,1,0.842c0.788,0.537,1.722,0.991,2.686,1.389c0.966,0.401,1.976,0.745,3.001,1.058
			c2.053,0.621,4.172,1.105,6.31,1.513c2.139,0.408,4.3,0.733,6.472,0.998c4.345,0.529,8.729,0.825,13.118,0.94
			c4.39,0.111,8.789,0.045,13.175-0.239c4.384-0.29,8.763-0.778,13.062-1.667c2.144-0.453,4.272-1.001,6.305-1.794
			c1.01-0.399,2.002-0.862,2.884-1.47c0.438-0.306,0.849-0.649,1.17-1.055c0.319-0.403,0.538-0.879,0.54-1.375
			c0.007-0.494-0.21-0.981-0.525-1.398c-0.316-0.42-0.726-0.779-1.16-1.103c-0.875-0.641-1.862-1.138-2.869-1.573
			C144.083,100.237,141.954,99.618,139.813,99.093z"/>
		<path fill="#FFFFFF" d="M81.221,106.234c0.026,0.224,0.064,0.487,0.105,0.738c0.043,0.256,0.088,0.513,0.138,0.771
			c0.099,0.514,0.21,1.03,0.331,1.545c0.244,1.029,0.528,2.054,0.85,3.067c0.645,2.024,1.438,4.006,2.379,5.912
			c1.882,3.809,4.378,7.318,7.487,10.2c1.553,1.442,3.253,2.724,5.073,3.817c1.82,1.095,3.759,1.999,5.774,2.712
			c4.029,1.426,8.35,2.071,12.675,2.135c4.33,0.065,8.682-0.474,12.773-1.882c2.045-0.7,4.016-1.616,5.863-2.743
			c1.85-1.128,3.572-2.467,5.137-3.976c3.135-3.023,5.604-6.723,7.435-10.704c0.917-1.994,1.68-4.06,2.292-6.173
			c0.307-1.056,0.576-2.122,0.806-3.199c0.228-1.076,0.423-2.162,0.54-3.259c-0.084,1.1-0.244,2.193-0.438,3.278
			c-0.194,1.087-0.432,2.166-0.705,3.236c-0.547,2.14-1.248,4.245-2.107,6.286c-1.719,4.078-4.104,7.923-7.225,11.132
			c-1.559,1.603-3.291,3.041-5.17,4.271c-1.877,1.229-3.896,2.248-5.996,3.045c-4.209,1.602-8.723,2.303-13.197,2.377
			c-4.48,0.082-9.02-0.436-13.358-1.813c-2.166-0.688-4.273-1.584-6.27-2.697c-1.997-1.112-3.882-2.437-5.609-3.939
			c-3.466-3.006-6.285-6.711-8.438-10.734c-1.078-2.015-1.996-4.109-2.759-6.262c-0.382-1.076-0.724-2.165-1.023-3.271
			c-0.149-0.554-0.289-1.11-0.416-1.675c-0.063-0.282-0.124-0.565-0.182-0.854c-0.056-0.289-0.108-0.57-0.157-0.891L81.221,106.234z
			"/>
		<path fill="#FFFFFF" d="M91.378,111.323c-0.005-0.008-0.011,0.048-0.017,0.087l-0.01,0.145c-0.006,0.1-0.01,0.209-0.01,0.317
			c-0.001,0.222,0.01,0.451,0.027,0.685c0.036,0.465,0.103,0.942,0.194,1.422c0.183,0.957,0.465,1.922,0.813,2.873
			c0.704,1.899,1.679,3.741,2.818,5.496c1.141,1.754,2.445,3.424,3.854,5.014c1.411,1.588,2.927,3.098,4.514,4.537
			c-1.764-1.217-3.479-2.519-5.114-3.93c-1.635-1.41-3.193-2.933-4.621-4.597c-1.428-1.662-2.729-3.472-3.789-5.468
			c-0.527-1-0.995-2.045-1.366-3.15c-0.186-0.554-0.347-1.12-0.474-1.713c-0.063-0.295-0.118-0.598-0.161-0.908
			c-0.021-0.156-0.038-0.316-0.054-0.48c-0.006-0.086-0.012-0.169-0.016-0.258c-0.004-0.095-0.008-0.171-0.003-0.313L91.378,111.323
			z"/>
		<path fill="#FFFFFF" d="M133.372,112.688c-0.019,0.242-0.045,0.436-0.07,0.646c-0.028,0.205-0.058,0.407-0.089,0.606
			c-0.063,0.4-0.135,0.8-0.213,1.192c-0.158,0.789-0.346,1.567-0.561,2.337c-0.428,1.537-0.969,3.04-1.639,4.479
			c-0.672,1.437-1.476,2.811-2.436,4.054c-0.959,1.243-2.077,2.353-3.33,3.237c1.066-1.104,1.93-2.363,2.607-3.696
			c0.68-1.335,1.183-2.742,1.549-4.176c0.367-1.437,0.601-2.897,0.726-4.362c0.063-0.732,0.099-1.467,0.104-2.195
			c0.006-0.363,0.002-0.728-0.01-1.086c-0.006-0.182-0.013-0.361-0.023-0.537c-0.008-0.172-0.021-0.361-0.037-0.502L133.372,112.688
			z"/>
		<polygon fill="#FFFFFF" points="118.955,137.979 115.963,151.518 113.254,137.979 		"/>
		<path fill="#FFFFFF" d="M87.219,105.198c0,0,5.894-13.206,16.345-16.626c10.45-3.42,17.482-5.512,17.482-7.792
			c0-2.28-2.091-2.28-2.091-2.28s10.072-2.851,15.962,7.981c5.892,10.831,1.711,11.021,9.501,17.863c0,0-6.652-3.769-10.259-13.493
			c0,0-0.761,4.084-4.085,7.601c-3.327,3.517-9.217,7.033-9.123,10.357h-4.467c0,0,0.957-5.88,9.598-11.214
			c8.641-5.332,5.986-14.252,1.711-16.056c0,0,1.614,7.221-7.031,12.636c-8.646,5.417-13.492,8.848-13.492,14.063l-5.416-0.19
			c0,0-0.096-7.982,11.4-13.207c11.498-5.226,11.782-8.932,11.782-12.067c0,0-5.606,4.467-10.071,5.701
			c-4.464,1.234-17.387,2.565-22.138,17.957L87.219,105.198z"/>
		<path fill="#FFFFFF" d="M97.864,78.881c-0.342-0.556-0.743-1.067-1.161-1.563c-0.42-0.495-0.862-0.969-1.324-1.423
			c-0.923-0.908-1.915-1.742-2.952-2.508c-2.078-1.532-4.338-2.793-6.688-3.828c-2.352-1.034-4.794-1.842-7.279-2.463
			c-2.486-0.619-5.015-1.055-7.559-1.341l0.338-2.255c2.604,0.487,5.181,1.128,7.697,1.954c2.513,0.826,4.966,1.842,7.3,3.078
			c2.332,1.238,4.548,2.697,6.545,4.408c0.999,0.854,1.941,1.772,2.805,2.759c0.433,0.491,0.845,1.001,1.229,1.53
			C97.197,77.758,97.565,78.302,97.864,78.881z"/>
		<path fill="#FFFFFF" d="M71.085,76.858c0,0,7.126-3.938,6.366-10.209C77.452,66.649,70.706,68.443,71.085,76.858z"/>
		<path fill="#FFFFFF" d="M109.36,84.39c0,0,1.143-8.646-5.225-8.646c-6.368,0-2.137,0.62-5.417,3.896
			c-3.277,3.278-9.053-1.52-9.053,5.606s5.733,8.452,5.733,8.452l1.216-1.097c0,0-3.597-3.841-3.312-6.312
			c0.285-2.468,2.943-4.276,6.745-4.276c3.801,0,0.95-3.133,4.751-3.133C108.601,78.881,109.36,84.39,109.36,84.39z"/>
		<path fill="#FFFFFF" d="M104.325,81.73c0,0,3.47,0.915,2.21,5.873C106.535,87.604,106.06,83.493,104.325,81.73z"/>
	</g>
</g>
</svg>
