<?xml version="1.0" encoding="utf-8"?>
<!-- Generator: Adobe Illustrator 15.0.2, SVG Export Plug-In . SVG Version: 6.00 Build 0)  -->
<!DOCTYPE svg PUBLIC "-//W3C//DTD SVG 1.1//EN" "http://www.w3.org/Graphics/SVG/1.1/DTD/svg11.dtd">
<svg version="1.1" id="Calque_1" xmlns="http://www.w3.org/2000/svg" xmlns:xlink="http://www.w3.org/1999/xlink" x="0px" y="0px"
	 width="222px" height="222px" viewBox="0 0 222 222" enable-background="new 0 0 222 222" xml:space="preserve">
<path fill="#EEEBE8" d="M222,111c0,4.406-7.721,8.307-8.229,12.572c-0.521,4.361,6.049,9.996,5.025,14.184
	c-1.039,4.258-9.458,6.18-10.982,10.215c-1.541,4.09,3.488,11.154,1.485,14.987c-2.019,3.862-10.649,3.69-13.104,7.26
	c-2.461,3.584,0.746,11.656-2.113,14.908c-2.87,3.257-11.21,1.017-14.439,3.901c-3.23,2.884-2.025,11.49-5.584,13.97
	c-3.547,2.468-11.113-1.705-14.949,0.325c-3.805,2.018-4.684,10.668-8.744,12.218c-4.012,1.532-10.359-4.353-14.582-3.304
	c-4.158,1.025-7.076,9.212-11.408,9.736c-4.24,0.514-9.001-6.73-13.378-6.73s-9.139,7.24-13.376,6.73
	c-4.335-0.522-7.248-8.711-11.407-9.736c-4.227-1.047-10.576,4.836-14.589,3.304c-4.058-1.554-4.934-10.203-8.741-12.218
	c-3.835-2.03-11.406,2.143-14.95-0.325c-3.558-2.479-2.352-11.086-5.581-13.97c-3.233-2.889-11.574-0.65-14.442-3.905
	c-2.861-3.252,0.345-11.32-2.115-14.908c-2.451-3.567-11.082-3.396-13.1-7.259c-2-3.834,3.026-10.898,1.487-14.984
	c-1.521-4.041-9.943-5.963-10.981-10.215c-1.024-4.188,5.549-9.82,5.025-14.184C7.72,119.303,0,115.407,0,111
	c0-4.408,7.72-8.304,8.229-12.572c0.52-4.363-6.05-9.996-5.027-14.183c1.037-4.259,9.458-6.181,10.983-10.22
	c1.54-4.086-3.491-11.151-1.489-14.984c2.018-3.862,10.649-3.69,13.1-7.259c2.461-3.585-0.743-11.652,2.117-14.905
	c2.869-3.257,11.209-1.021,14.442-3.906c3.229-2.883,2.024-11.489,5.582-13.972c3.543-2.468,11.114,1.709,14.95-0.321
	c3.808-2.019,4.679-10.668,8.741-12.218c4.012-1.534,10.361,4.35,14.586,3.304c4.159-1.026,7.072-9.212,11.407-9.737
	c4.237-0.514,9,6.731,13.378,6.731c4.379,0,9.142-7.245,13.379-6.731c4.334,0.525,7.248,8.711,11.406,9.737
	c4.228,1.046,10.577-4.836,14.59-3.303c4.062,1.551,4.935,10.2,8.739,12.217c3.839,2.034,11.406-2.143,14.951,0.325
	c3.561,2.479,2.352,11.089,5.58,13.968c3.232,2.888,11.576,0.651,14.441,3.906c2.863,3.253-0.344,11.324,2.117,14.907
	c2.453,3.568,11.084,3.397,13.1,7.261c2.006,3.833-3.025,10.895-1.484,14.98c1.521,4.043,9.943,5.961,10.982,10.22
	c1.021,4.187-5.549,9.819-5.025,14.183C214.279,102.696,222,106.594,222,111z"/>
<g>
	<g>
		<path fill="#FFFFFF" d="M110.998,202.997c-50.373,0-91.355-41.271-91.355-91.997c0-50.726,40.982-91.997,91.355-91.997
			s91.359,41.27,91.359,91.997C202.357,161.727,161.371,202.997,110.998,202.997z M110.998,20.889
			c-49.342,0-89.484,40.425-89.484,90.113c0,49.688,40.142,90.109,89.484,90.109c49.346,0,89.488-40.426,89.488-90.109
			C200.486,61.313,160.344,20.889,110.998,20.889z"/>
	</g>
</g>
<g>
	<g>
		<path fill="#FFFFFF" d="M110.998,198.604c-47.968,0-86.992-39.302-86.992-87.602c0-48.304,39.024-87.603,86.992-87.603
			c47.968,0,86.996,39.299,86.996,87.601S158.966,198.604,110.998,198.604z M110.998,25.27c-46.941,0-85.131,38.458-85.131,85.73
			c0,47.27,38.19,85.729,85.131,85.729c46.941,0,85.137-38.455,85.137-85.729C196.135,63.727,157.939,25.27,110.998,25.27z"/>
	</g>
</g>
<g>
	<g>
		<path fill="#FFFFFF" d="M157.064,108.729c-3.022,0.195-6.047,0.376-9.078,0.515c-3.566,0.177-7.135,0.312-10.711,0.449
			c-7.146,0.234-14.293,0.397-21.441,0.45c-7.14,0.07-14.29,0.053-21.44-0.066c-3.58-0.068-7.15-0.159-10.729-0.274
			c-3.572-0.117-7.146-0.269-10.733-0.482l0.728-0.785c0.025,0.115,0.048,0.272,0.08,0.401c0.032,0.132,0.057,0.282,0.091,0.414
			c0.061,0.282,0.136,0.565,0.205,0.848c0.147,0.563,0.319,1.107,0.494,1.664c0.367,1.098,0.783,2.181,1.259,3.244
			c0.952,2.125,2.099,4.139,3.442,6.041c1.334,1.884,2.865,3.638,4.542,5.215c1.687,1.578,3.528,2.979,5.482,4.205
			c3.91,2.443,8.278,4.111,12.785,5.123c4.503,1.031,9.156,1.425,13.794,1.377c4.646-0.03,9.277-0.504,13.752-1.594
			c4.469-1.086,8.766-2.822,12.594-5.291c1.909-1.242,3.701-2.649,5.336-4.229c1.625-1.597,3.092-3.327,4.379-5.199
			c1.278-1.89,2.381-3.883,3.27-5.966c0.443-1.049,0.837-2.116,1.173-3.194c0.164-0.53,0.324-1.081,0.451-1.613
			c0.073-0.274,0.133-0.551,0.188-0.825c0.031-0.127,0.053-0.255,0.082-0.397L157.064,108.729z M160.318,108.545l-0.051,0.312
			l-0.029,0.157l-0.018,0.119l-0.048,0.237c-0.034,0.164-0.063,0.329-0.101,0.472c-0.074,0.308-0.146,0.629-0.229,0.931
			c-0.157,0.604-0.34,1.2-0.532,1.79c-0.39,1.182-0.836,2.34-1.338,3.459c-1.01,2.26-2.234,4.414-3.666,6.437
			c-1.423,2.021-3.045,3.89-4.84,5.571c-1.794,1.681-3.752,3.175-5.832,4.482c-4.162,2.59-8.767,4.35-13.479,5.418
			c-4.717,1.071-9.534,1.473-14.323,1.443c-4.781-0.05-9.588-0.534-14.265-1.662c-4.672-1.143-9.215-2.97-13.288-5.586
			c-2.035-1.322-3.942-2.824-5.684-4.508c-1.742-1.699-3.31-3.563-4.677-5.555c-1.368-1.989-2.537-4.125-3.494-6.357
			c-0.478-1.105-0.893-2.25-1.259-3.411c-0.174-0.581-0.344-1.165-0.491-1.757c-0.069-0.293-0.143-0.589-0.203-0.887
			c-0.035-0.142-0.06-0.3-0.091-0.441c-0.023-0.164-0.053-0.298-0.073-0.476l-0.128-0.86l0.857,0.072
			c3.538,0.274,7.113,0.475,10.674,0.639c3.563,0.181,7.136,0.335,10.701,0.451c7.14,0.229,14.283,0.378,21.418,0.419
			c7.146,0.059,14.291,0.01,21.436-0.115c3.567-0.071,7.146-0.144,10.713-0.272c3.576-0.112,7.143-0.239,10.707-0.434
			L160.318,108.545z"/>
		<path fill="#FFFFFF" d="M84.45,109.229c-0.483-0.294-0.934-0.648-1.374-0.999c-0.436-0.374-0.855-0.771-1.248-1.18
			c-0.789-0.839-1.509-1.727-2.204-2.618c-1.381-1.79-2.676-3.638-3.959-5.482l-0.964-1.379l-0.474-0.684
			c-0.155-0.216-0.312-0.449-0.479-0.662c-0.646-0.868-1.32-1.695-2.054-2.453c-0.726-0.765-1.507-1.435-2.332-1.976
			c-0.406-0.272-0.833-0.493-1.255-0.662c-0.207-0.084-0.412-0.138-0.608-0.19c-0.098-0.018-0.193-0.029-0.281-0.037
			c-0.043-0.004-0.085-0.008-0.113-0.01h-0.042h-0.017l0.045-0.004l-0.243,0.02l-0.221-0.064c0.012,0.004-0.004,0-0.009-0.002
			l-0.034-0.004l-0.075-0.012c-0.049-0.008-0.099-0.016-0.15-0.021c-0.102-0.012-0.205-0.021-0.309-0.029
			c-0.207-0.031-0.421-0.033-0.618-0.004c-0.395,0.021-0.74,0.117-0.993,0.253c-0.254,0.152-0.439,0.345-0.585,0.637
			c-0.143,0.292-0.239,0.68-0.275,1.103c-0.006,0.104-0.011,0.222-0.012,0.319l0.001,0.071c-0.001,0.01,0,0.027,0.001,0.047
			c0.001,0.055,0.005,0.094,0.009,0.15c0.025,0.194,0.059,0.404,0.125,0.617c0.11,0.447,0.273,0.897,0.472,1.36
			c0.41,0.927,0.904,1.842,1.442,2.739c1.075,1.818,2.294,3.581,3.543,5.315c1.251,1.754,2.537,3.491,3.831,5.245
			c-0.849-0.686-1.664-1.404-2.453-2.151c-0.791-0.748-1.564-1.519-2.314-2.302c-1.507-1.574-2.948-3.208-4.253-5.015
			c-0.643-0.901-1.266-1.824-1.795-2.866c-0.26-0.514-0.506-1.064-0.698-1.662c-0.094-0.3-0.18-0.611-0.231-0.964
			c-0.011-0.088-0.021-0.174-0.037-0.251c-0.004-0.053-0.007-0.088-0.01-0.15l-0.006-0.133c-0.005-0.177-0.005-0.334-0.001-0.488
			c0.027-0.652,0.128-1.348,0.438-2.04c0.153-0.353,0.37-0.684,0.63-0.983c0.259-0.3,0.578-0.566,0.914-0.766
			c0.674-0.406,1.4-0.58,2.065-0.624c0.339-0.041,0.671-0.039,1-0.002c0.16,0.011,0.318,0.024,0.488,0.042
			c0.084,0.01,0.16,0.021,0.246,0.051l0.13,0.02l0.064,0.012l0.089,0.018l-0.473-0.025l0.094-0.006l0.055-0.004l0.096-0.002
			c0.057-0.002,0.111,0,0.172,0.002c0.104,0.002,0.203,0.008,0.299,0.018c0.193,0.016,0.367,0.043,0.546,0.094
			c0.348,0.082,0.676,0.188,0.984,0.306c0.625,0.259,1.191,0.57,1.709,0.909c1.05,0.719,1.932,1.55,2.737,2.434
			c0.787,0.894,1.491,1.842,2.125,2.819c0.167,0.235,0.32,0.49,0.471,0.729l0.44,0.742l0.856,1.464
			c1.127,1.949,2.212,3.919,3.314,5.868C81.794,105.671,82.886,107.585,84.45,109.229z"/>
		<path fill="#FFFFFF" d="M75.502,96.881c0.65-0.8,1.465-1.423,2.355-1.937c0.885-0.507,1.853-0.888,2.847-1.132
			c1.003-0.261,2.034-0.385,3.064-0.422c1.03-0.016,2.07,0.067,3.086,0.241l-1.056,0.617l0.041-0.123l0.03-0.11l0.079-0.229
			c0.051-0.134,0.104-0.263,0.158-0.412c0.119-0.276,0.237-0.528,0.37-0.797c0.258-0.52,0.55-1.043,0.88-1.53
			c0.652-0.956,1.444-1.872,2.351-2.622c0.911-0.771,1.944-1.413,3.05-1.857c0.548-0.245,1.12-0.431,1.698-0.564
			c0.289-0.076,0.58-0.127,0.871-0.186c0.292-0.058,0.584-0.089,0.876-0.112c0.583-0.066,1.176-0.076,1.748-0.063
			c0.561,0.01,1.127,0.064,1.697,0.111c1.127,0.14,2.255,0.356,3.358,0.729c1.09,0.372,2.162,0.876,3.116,1.585
			c0.466,0.362,0.906,0.768,1.29,1.236c0.192,0.226,0.373,0.462,0.528,0.73c0.083,0.126,0.15,0.272,0.225,0.406
			c0.028,0.074,0.063,0.15,0.098,0.213l0.046,0.132l0.017,0.049l0.03,0.084l-0.992-0.117c0.123-0.177,0.228-0.308,0.339-0.467
			c0.12-0.135,0.232-0.288,0.346-0.421c0.236-0.284,0.478-0.559,0.727-0.829c0.493-0.525,1.022-1.019,1.563-1.497
			c1.098-0.952,2.273-1.784,3.537-2.482c2.521-1.42,5.363-2.245,8.277-2.438c1.455-0.096,2.949-0.047,4.416,0.269
			c0.731,0.142,1.461,0.343,2.173,0.615c0.702,0.274,1.39,0.596,2.053,0.979c1.319,0.769,2.5,1.766,3.511,2.92
			c0.5,0.574,0.967,1.186,1.379,1.818c0.215,0.337,0.412,0.66,0.598,0.993c0.095,0.175,0.176,0.353,0.265,0.535
			c0.045,0.09,0.088,0.182,0.132,0.276l0.061,0.135l0.033,0.078l0.03,0.095l-2.157-0.339l0.08-0.099l0.057-0.059l0.109-0.141
			c0.08-0.087,0.147-0.151,0.229-0.231c0.148-0.161,0.3-0.294,0.455-0.423c0.318-0.274,0.642-0.527,0.984-0.743
			c0.693-0.431,1.432-0.786,2.189-1.042c0.77-0.241,1.557-0.402,2.352-0.461c0.195-0.029,0.393-0.041,0.59-0.047
			c0.098-0.002,0.195-0.004,0.293-0.006l0.287,0.002c0.215,0.004,0.412,0.01,0.612,0.041c0.21,0.012,0.41,0.031,0.61,0.053
			c0.801,0.108,1.602,0.351,2.354,0.67c0.379,0.171,0.75,0.361,1.102,0.572c0.35,0.216,0.688,0.449,1.011,0.722
			c0.637,0.542,1.212,1.162,1.663,1.914c0.229,0.356,0.427,0.774,0.576,1.207c0.147,0.45,0.255,0.937,0.252,1.476l-2.221-0.894
			l0.051-0.057l0.031-0.021l0.045-0.034l0.07-0.068c0.047-0.029,0.092-0.055,0.135-0.098c0.086-0.045,0.159-0.104,0.241-0.139
			c0.153-0.093,0.302-0.169,0.447-0.239c0.293-0.118,0.579-0.21,0.858-0.288c0.557-0.134,1.104-0.212,1.629-0.245
			c0.271-0.014,0.529-0.023,0.797-0.025c0.125,0,0.258,0.002,0.39,0.004l0.198,0.004l0.113,0.004l0.121,0.008
			c0.599,0.039,1.166,0.188,1.697,0.382c1.053,0.396,1.977,0.993,2.776,1.711c0.791,0.738,1.458,1.581,1.952,2.531
			c0.498,0.948,0.828,1.97,0.966,3.02c0.063,0.518,0.077,1.036,0.058,1.567c-0.031,0.494-0.074,0.989-0.129,1.478
			c-0.115,0.981-0.29,1.957-0.547,2.914c-0.271,0.938-0.586,1.881-1.113,2.723l-0.217-0.121c0.16-0.423,0.277-0.894,0.371-1.361
			c0.098-0.449,0.175-0.921,0.227-1.396c0.104-0.931,0.146-1.877,0.133-2.827c-0.012-0.477-0.026-0.929-0.06-1.401
			c-0.024-0.452-0.1-0.882-0.204-1.301c-0.205-0.854-0.559-1.651-1.031-2.383c-0.477-0.711-1.063-1.338-1.733-1.869
			c-0.659-0.51-1.411-0.911-2.164-1.125c-0.379-0.109-0.76-0.178-1.11-0.18h-0.063h-0.066l-0.158,0.006
			c-0.106,0.004-0.215,0.008-0.33,0.014c-0.211,0.014-0.424,0.029-0.64,0.068c-0.413,0.043-0.827,0.127-1.187,0.239
			c-0.182,0.063-0.348,0.117-0.492,0.193c-0.076,0.048-0.139,0.077-0.189,0.103c-0.029,0.014-0.047,0.045-0.066,0.053
			c-0.006,0.006-0.01,0.01-0.01,0.01s0.002,0,0.004-0.004l0.02-0.006l0.01-0.01l0.036-0.047l-2.091,2.104l-0.129-2.996
			c-0.005-0.146-0.053-0.372-0.141-0.588c-0.088-0.218-0.207-0.459-0.354-0.676c-0.296-0.438-0.684-0.872-1.13-1.215
			c-0.453-0.361-0.95-0.656-1.479-0.88c-0.533-0.241-1.09-0.382-1.67-0.475c-0.146-0.018-0.291-0.033-0.438-0.063
			c-0.146-0.012-0.298-0.016-0.429-0.021l-0.241-0.002c-0.071,0-0.151,0-0.231,0c-0.152,0.002-0.304,0.01-0.453,0.018
			c-0.603,0.049-1.205,0.149-1.77,0.304c-0.572,0.173-1.12,0.413-1.631,0.711c-0.252,0.142-0.493,0.312-0.721,0.492
			c-0.11,0.092-0.218,0.166-0.316,0.263c-0.051,0.055-0.1,0.094-0.145,0.15l-0.068,0.071l-0.022,0.023l-0.008,0.01l-0.002,0.002
			c0-0.002-0.003,0.004,0.005-0.008l-1.41,1.885l-0.757-2.225l-0.008-0.025l-0.015-0.039l-0.043-0.102l-0.09-0.228
			c-0.06-0.135-0.132-0.272-0.199-0.425c-0.141-0.288-0.293-0.576-0.455-0.858c-0.33-0.547-0.707-1.094-1.11-1.597
			c-0.817-1.008-1.782-1.898-2.854-2.646c-0.535-0.374-1.098-0.695-1.696-0.979c-0.591-0.284-1.198-0.52-1.843-0.713
			c-1.269-0.389-2.604-0.598-3.967-0.645c-1.363-0.04-2.731,0.084-4.076,0.38c-1.334,0.302-2.639,0.789-3.855,1.445
			c-1.215,0.644-2.359,1.464-3.361,2.398c-0.513,0.475-0.987,0.979-1.428,1.521c-0.213,0.253-0.42,0.531-0.619,0.813
			c-0.108,0.131-0.195,0.282-0.288,0.417c-0.091,0.149-0.188,0.292-0.261,0.432l-0.484,0.886l-0.5-1.02l-0.057-0.115
			c-0.03-0.041-0.053-0.1-0.086-0.14c-0.058-0.098-0.122-0.195-0.198-0.291c-0.144-0.192-0.303-0.377-0.479-0.551
			c-0.347-0.329-0.746-0.621-1.172-0.878c-0.849-0.496-1.808-0.817-2.792-1.027c-0.994-0.207-2.014-0.327-3.04-0.358
			c-0.508-0.018-1.03-0.016-1.548-0.008c-0.508,0.006-0.995,0.035-1.486,0.101c-0.49,0.068-0.973,0.158-1.449,0.271
			c-0.475,0.115-0.935,0.254-1.384,0.435c-0.906,0.362-1.749,0.854-2.522,1.454c-0.77,0.604-1.465,1.328-2.071,2.128
			c-0.299,0.397-0.583,0.809-0.833,1.254c-0.121,0.213-0.244,0.429-0.354,0.646c-0.054,0.109-0.107,0.22-0.166,0.345l-0.069,0.154
			l-0.058,0.153l-0.334,0.798l-0.722-0.181c-0.911-0.218-1.833-0.386-2.762-0.462c-0.928-0.063-1.862-0.054-2.79,0.055
			c-0.928,0.109-1.849,0.323-2.736,0.664c-0.452,0.15-0.88,0.347-1.304,0.588c-0.424,0.217-0.833,0.483-1.206,0.781L75.502,96.881z"
			/>
		<path fill="#FFFFFF" d="M131.18,109.646c0,0,2.504-5.902,2.504-9.345c0,0,0.842,0.829,0.842,9.345H131.18z"/>
		<path fill="#FFFFFF" d="M139.132,109.456c0,0-0.793-11.765,2.353-11.765v11.765H139.132z"/>
		<polygon fill="#FFFFFF" points="147.175,109.199 151.229,104.176 150.438,109.055 		"/>
		<path fill="#FFFFFF" d="M122.105,101.614c0.463-0.002,0.918,0.079,1.367,0.192c0.457,0.117,0.9,0.292,1.327,0.527
			c0.847,0.435,1.613,1.099,2.214,1.893c0.61,0.793,1.055,1.704,1.364,2.66c0.319,0.957,0.511,1.94,0.614,2.922h-2.543
			c0.104-0.847,0.134-1.675,0.066-2.516c-0.066-0.819-0.25-1.646-0.588-2.396c-0.336-0.764-0.832-1.464-1.49-2.038
			c-0.318-0.286-0.688-0.546-1.078-0.754C122.971,101.898,122.559,101.719,122.105,101.614z"/>
		<path fill="#FFFFFF" d="M107.196,92.77l-2.114,1.248c0,0-0.908-3.094-6.596-3.094c-5.689,0-7.72,5.737-7.72,5.737
			c-0.595-0.282-2.713-1.363-2.713-1.363c10.777,9.244,11.308,13.335,11.308,13.335c1.387-4.373,6.597-4.24,6.597-4.24
			C105.206,97.259,107.196,92.77,107.196,92.77z M94.505,93.883c2.568-2.576,4.45,4.542,4.45,4.542S91.938,96.479,94.505,93.883z
			 M103.456,104.176c-1.792,1.814-1.875-3.159-1.875-3.159S105.247,102.381,103.456,104.176z M101.466,98.74
			c-2.469-2.015,3.021-4.176,3.021-4.176S103.935,100.732,101.466,98.74z"/>
		<path fill="#FFFFFF" d="M100.038,104.571"/>
		<path fill="#FFFFFF" d="M84.45,101.332c-3.524,0-4.916,1.809-4.916,1.809s3.173,4.399,4.034,5.303
			c0.862,0.903,1.666,0.811,1.666,0.811l11.334,0.353C94.11,108.568,87.983,101.332,84.45,101.332z M83.764,102.794
			c2.907-1.017,1.75,3.894,1.75,3.894S80.858,103.828,83.764,102.794z"/>
		<g>
			<path fill="#FFFFFF" d="M129.868,94.365c0,0-0.677-6.035-8.95-6.035c-8.271,0-12.096,6.435-12.096,11.972
				c0,5.521,3.864,9.505,3.864,9.505l2.699,0.002c0-8.237,5.293-8.51,5.293-8.51c2.387-4.406,7.555-2.443,7.555-2.443
				c0-5.109,5.445-5.102,6.476-5.064C131.254,93.56,129.868,94.365,129.868,94.365z M110.375,103.574
				c-1.792-4.326,5.46-3.471,5.46-3.471S112.166,107.9,110.375,103.574z M117.335,97.177c0,0-5.961-5.007-2.448-5.804
				C118.396,90.56,117.335,97.177,117.335,97.177z M120.001,98.425c0,0,3.179-8.091,7.043-4.188
				C130.898,98.141,120.001,98.425,120.001,98.425z"/>
			<path fill="#FFFFFF" d="M134.708,93.791c0.063,0.004,0.114,0.023,0.172,0.027C134.88,93.818,134.822,93.813,134.708,93.791z"/>
		</g>
		<path fill="#FFFFFF" d="M110.114,109.326c-0.227-0.419-0.442-0.814-0.677-1.2c-0.234-0.387-0.48-0.759-0.74-1.121
			c-0.269-0.343-0.553-0.691-0.854-1.015c-0.301-0.324-0.63-0.653-0.968-0.986c0.471,0.108,0.907,0.321,1.299,0.605
			c0.391,0.284,0.738,0.619,1.028,1.01c0.29,0.39,0.525,0.832,0.684,1.277C110.04,108.356,110.142,108.841,110.114,109.326z"/>
	</g>
</g>
</svg>
