<?xml version="1.0" encoding="utf-8"?>
<!-- Generator: Adobe Illustrator 15.0.2, SVG Export Plug-In . SVG Version: 6.00 Build 0)  -->
<!DOCTYPE svg PUBLIC "-//W3C//DTD SVG 1.1//EN" "http://www.w3.org/Graphics/SVG/1.1/DTD/svg11.dtd">
<svg version="1.1" id="Calque_1" xmlns="http://www.w3.org/2000/svg" xmlns:xlink="http://www.w3.org/1999/xlink" x="0px" y="0px"
	 width="208px" height="208px" viewBox="0 0 208 208" enable-background="new 0 0 208 208" xml:space="preserve">
<circle fill="#29F37A" cx="-276" cy="104" r="104"/>
<g>
	<text transform="matrix(1 0 0 1 -325.8423 131.9551)" fill="#EEEBE8" font-family="'BlackChancery'" font-size="117.8318">G</text>
</g>
<circle fill="#29F37A" cx="104" cy="104" r="104"/>
<g enable-background="new    ">
	<path fill="#EEEBE8" d="M109.303,52.772v2.121c0.863-0.077,1.609-0.118,2.238-0.118c4.949,0,10.447,0.727,16.496,2.18
		c6.049,1.455,11.588,4.577,16.615,9.368c5.025,4.792,7.541,11.824,7.541,21.092c0,8.328-2.318,14.573-6.951,18.736
		c-4.637,4.164-10.488,6.244-17.559,6.244c-4.4,0-7.914-0.843-10.545-2.533c-2.633-1.688-3.947-3.436-3.947-5.243
		c3.535,2.671,5.832,4.224,6.893,4.654c1.061,0.433,2.809,0.647,5.244,0.647c4.318,0,8.012-1.864,11.076-5.596
		c3.063-3.73,4.596-9.681,4.596-17.852c0-11.233-3.379-18.735-10.135-22.506c-6.756-3.771-14.063-5.656-21.916-5.656v64.454
		c0,4.793,2.65,8.702,7.953,11.725c5.303,3.023,7.955,6.068,7.955,9.132c0,0.784-0.041,1.374-0.119,1.768
		c-1.648-3.299-4.086-5.44-7.305-6.422c-3.223-0.982-7.385-1.473-12.49-1.473c-9.977,0-17.873,2.483-23.685,7.451
		c-5.813,4.967-8.719,10.053-8.719,15.257c0,1.894,0.294,3.292,0.884,4.2c0.589,0.903,2.492,2.461,5.715,4.671
		c-0.866,0.077-1.532,0.117-2.004,0.117c-2.592,0-4.969-0.55-7.129-1.651c-2.161-1.101-3.24-3.226-3.24-6.37
		c0-4.089,2.356-8.57,7.07-13.445c4.398-4.091,8.797-8.14,13.197-12.149c4.79-4.798,7.188-9.044,7.188-12.741v-36.92
		c0-3.539,0.746-8.314,2.239-14.331c1.491-6.017,4.045-10.439,7.658-13.271c-16.968,0-28.438,2.2-34.406,6.599
		c-5.971,4.4-8.956,10.056-8.956,16.968c0,8.013,2.122,14.788,6.363,20.326c4.242,5.538,10.564,10.192,18.971,13.963
		c-10.133,0-17.871-2.593-23.212-7.777c-5.343-5.185-8.013-12.372-8.013-21.563c0-10.997,4.614-19.069,13.845-24.215
		c9.229-5.144,21.976-7.718,38.236-7.718L109.303,52.772z"/>
</g>
<circle fill="#29F37A" cx="444" cy="104" r="104"/>
<g>
	<text transform="matrix(1 0 0 1 385.1436 131.9551)" fill="#EEEBE8" font-family="'BlackChancery'" font-size="117.8318">D</text>
</g>
</svg>
