<?xml version="1.0" encoding="utf-8"?>
<!-- Generator: Adobe Illustrator 15.0.2, SVG Export Plug-In . SVG Version: 6.00 Build 0)  -->
<!DOCTYPE svg PUBLIC "-//W3C//DTD SVG 1.1//EN" "http://www.w3.org/Graphics/SVG/1.1/DTD/svg11.dtd">
<svg version="1.1" id="Calque_1" xmlns="http://www.w3.org/2000/svg" xmlns:xlink="http://www.w3.org/1999/xlink" x="0px" y="0px"
	 width="208px" height="208px" viewBox="0 0 208 208" enable-background="new 0 0 208 208" xml:space="preserve">
<circle fill="#29F37A" cx="104" cy="104" r="104"/>
<g enable-background="new    ">
	<path fill="#EEEBE8" d="M104.707,53.479c4.084,0,10.152,0.748,18.205,2.239c8.051,1.493,13.178,2.239,15.377,2.239
		c-2.436,4.713-4.006,8.112-4.713,10.192c-0.707,2.083-1.297,4.695-1.768,7.836c-2.516-7.226-6.521-12.214-12.02-14.964
		c-5.498-2.749-12.529-4.125-21.091-4.125c-10.448,0-17.813,3.423-22.093,10.265c-4.283,6.843-6.422,15.574-6.422,26.193
		c0,14.708,3.082,27.548,9.25,38.522c6.165,10.971,15.259,16.458,27.278,16.458c7.07,0,12.785-2.031,17.145-6.087
		c4.359-4.06,6.539-9.558,6.539-16.491c0-6.854-1.611-11.029-4.83-12.529c-3.223-1.496-9.191-2.246-17.91-2.246
		c-4.007,0-7.739,0.395-11.195,1.179c-3.458,0.786-6.48,3.024-9.073,6.717c0-3.745,2.063-7.628,6.187-11.647
		c4.124-4.017,9.132-6.027,15.023-6.027c2.043,0,4.162,0,6.363,0c2.199,0,4.438,0,6.717,0c7.777,0,14.295-0.195,19.561-0.589
		c5.262-0.392,9.309-1.178,12.137-2.356c-1.102,2.986-3.242,6.009-6.422,9.073c-3.182,3.064-7.641,4.596-13.375,4.596
		c1.492,1.729,2.514,3.398,3.064,5.008c0.549,1.611,0.824,4.184,0.824,7.718c0,9.818-3.123,16.712-9.367,20.68
		c-6.246,3.966-14.396,5.95-24.451,5.95c-16.812,0-29.007-4.518-36.587-13.551c-7.582-9.032-11.371-19.599-11.371-31.696
		c0-16.025,4.301-28.79,12.903-38.295C77.194,58.233,89.231,53.479,104.707,53.479z"/>
</g>
<circle fill="#29F37A" cx="484" cy="104" r="104"/>
<g>
	<text transform="matrix(1 0 0 1 434.3926 131.9551)" fill="#EEEBE8" font-family="'BlackChancery'" font-size="117.8318">P</text>
</g>
<circle fill="#29F37A" cx="824" cy="104" r="104"/>
<g>
	<text transform="matrix(1 0 0 1 765.1436 131.9551)" fill="#EEEBE8" font-family="'BlackChancery'" font-size="117.8318">D</text>
</g>
</svg>
