<?xml version="1.0" encoding="utf-8"?>
<!-- Generator: Adobe Illustrator 15.0.2, SVG Export Plug-In . SVG Version: 6.00 Build 0)  -->
<!DOCTYPE svg PUBLIC "-//W3C//DTD SVG 1.1//EN" "http://www.w3.org/Graphics/SVG/1.1/DTD/svg11.dtd">
<svg version="1.1" id="Calque_1" xmlns="http://www.w3.org/2000/svg" xmlns:xlink="http://www.w3.org/1999/xlink" x="0px" y="0px"
	 width="208px" height="208px" viewBox="0 0 208 208" enable-background="new 0 0 208 208" xml:space="preserve">
<circle fill="#29F37A" cx="-616" cy="104" r="104"/>
<g>
	<text transform="matrix(1 0 0 1 -665.8423 131.9551)" fill="#EEEBE8" font-family="'BlackChancery'" font-size="117.8318">G</text>
</g>
<circle fill="#29F37A" cx="-236" cy="104" r="104"/>
<g>
	<text transform="matrix(1 0 0 1 -285.6069 131.9551)" fill="#EEEBE8" font-family="'BlackChancery'" font-size="117.8318">P</text>
</g>
<circle fill="#29F37A" cx="104" cy="104" r="104"/>
<g enable-background="new    ">
	<path fill="#EEEBE8" d="M159.205,106.444c0,17.342-4.771,30.189-14.316,38.546c-9.545,8.355-26.57,12.534-51.081,12.534h-4.241
		c-6.599,0-12.472-1.171-17.616-3.513c-5.146-2.342-8.66-7.416-10.546-15.223c2.905,5.222,6.322,8.768,10.251,10.639
		c3.928,1.87,8.287,3.312,13.08,4.326V85.968c0-3.373,1.217-7.864,3.652-13.474c2.435-5.61,4.634-9.71,6.599-12.299
		c-15.005,0-26.002,1.435-32.993,4.301c-6.992,2.868-10.487,9.014-10.487,18.44c0,7.935,1.688,14.022,5.067,18.264
		c3.377,4.242,9.662,8.996,18.854,14.258c-9.898,0-17.342-2.631-22.33-7.895c-4.989-5.263-7.482-11.822-7.482-19.679
		c0-9.583,3.515-17.36,10.546-23.331c7.029-5.969,20.874-8.955,41.535-8.955l2.121-1.885V55.6c17.752,0,32.088,3.846,43.008,11.535
		C153.744,74.825,159.205,87.928,159.205,106.444z M100.171,130.983c0,3.461-1.178,7.256-3.535,11.385
		c-2.356,4.128-4.792,7.925-7.306,11.386c11.548,0,21.228-0.906,29.046-2.714c7.814-1.81,14.1-5.507,18.854-11.089
		c4.752-5.586,7.129-13.803,7.129-24.658c0-17.382-3.182-30.97-9.545-40.763c-6.363-9.791-17.91-14.688-34.643-14.688V130.983z"/>
</g>
</svg>
